<svg width="274" height="61" viewBox="0 0 274 61" fill="none" xmlns="http://www.w3.org/2000/svg">
<path d="M16.4981 50.48C13.0848 50.48 10.5381 49.24 8.85812 46.76C7.20479 44.28 6.37813 40.7067 6.37813 36.04C6.37813 31.3733 7.20479 27.8 8.85812 25.32C10.5381 22.84 13.0848 21.6 16.4981 21.6C17.7781 21.6 18.8848 21.7733 19.8181 22.12C20.7515 22.4667 21.5515 22.9333 22.2181 23.52C22.8848 24.1067 23.4448 24.7733 23.8981 25.52C24.3515 26.24 24.7515 26.9733 25.0981 27.72L22.2181 29.04C21.9781 28.4267 21.6981 27.8533 21.3781 27.32C21.0581 26.76 20.6715 26.28 20.2181 25.88C19.7915 25.4533 19.2715 25.12 18.6581 24.88C18.0715 24.64 17.3515 24.52 16.4981 24.52C14.2848 24.52 12.6315 25.36 11.5381 27.04C10.4715 28.72 9.93813 30.96 9.93813 33.76V38.32C9.93813 41.12 10.4715 43.36 11.5381 45.04C12.6315 46.72 14.2848 47.56 16.4981 47.56C17.3515 47.56 18.0715 47.44 18.6581 47.2C19.2715 46.96 19.7915 46.64 20.2181 46.24C20.6715 45.8133 21.0581 45.3333 21.3781 44.8C21.6981 44.24 21.9781 43.6533 22.2181 43.04L25.0981 44.36C24.7515 45.1333 24.3515 45.88 23.8981 46.6C23.4448 47.32 22.8848 47.9733 22.2181 48.56C21.5515 49.1467 20.7515 49.6133 19.8181 49.96C18.8848 50.3067 17.7781 50.48 16.4981 50.48ZM47.3625 50C46.1092 50 45.2158 49.68 44.6825 49.04C44.1492 48.4 43.8158 47.6 43.6825 46.64H43.4825C43.0292 47.84 42.2958 48.7867 41.2825 49.48C40.2958 50.1467 38.9625 50.48 37.2825 50.48C35.1225 50.48 33.4025 49.92 32.1225 48.8C30.8425 47.68 30.2025 46.1467 30.2025 44.2C30.2025 42.28 30.8958 40.8 32.2825 39.76C33.6958 38.72 35.9625 38.2 39.0825 38.2H43.4825V36.16C43.4825 34.64 43.0558 33.5067 42.2025 32.76C41.3492 31.9867 40.1358 31.6 38.5625 31.6C37.1758 31.6 36.0425 31.88 35.1625 32.44C34.2825 32.9733 33.5758 33.7067 33.0425 34.64L30.8825 33.04C31.1492 32.5067 31.5092 31.9867 31.9625 31.48C32.4158 30.9733 32.9758 30.5333 33.6425 30.16C34.3092 29.76 35.0692 29.4533 35.9225 29.24C36.7758 29 37.7225 28.88 38.7625 28.88C41.1892 28.88 43.1092 29.4933 44.5225 30.72C45.9625 31.9467 46.6825 33.6533 46.6825 35.84V47.2H49.5625V50H47.3625ZM37.8425 47.8C38.6692 47.8 39.4158 47.7067 40.0825 47.52C40.7758 47.3067 41.3758 47.04 41.8825 46.72C42.3892 46.3733 42.7758 45.9733 43.0425 45.52C43.3358 45.04 43.4825 44.5333 43.4825 44V40.6H39.0825C37.1625 40.6 35.7625 40.8667 34.8825 41.4C34.0025 41.9333 33.5625 42.7067 33.5625 43.72V44.56C33.5625 45.6267 33.9358 46.44 34.6825 47C35.4558 47.5333 36.5092 47.8 37.8425 47.8ZM54.7469 47.28H61.9469V23.12H54.7469V20.4H65.1469V47.28H72.3469V50H54.7469V47.28ZM88.2513 50.48C86.7579 50.48 85.4246 50.2267 84.2513 49.72C83.1046 49.1867 82.1313 48.4533 81.3313 47.52C80.5313 46.5867 79.9179 45.4533 79.4913 44.12C79.0913 42.7867 78.8913 41.3067 78.8913 39.68C78.8913 38.0533 79.1046 36.5733 79.5313 35.24C79.9579 33.9067 80.5713 32.7733 81.3713 31.84C82.1713 30.88 83.1446 30.1467 84.2913 29.64C85.4379 29.1333 86.7446 28.88 88.2113 28.88C90.2113 28.88 91.8379 29.32 93.0913 30.2C94.3446 31.08 95.2646 32.2267 95.8513 33.64L93.2913 35C92.9179 33.9333 92.2913 33.1067 91.4113 32.52C90.5579 31.9333 89.4913 31.64 88.2113 31.64C87.2779 31.64 86.4379 31.8 85.6913 32.12C84.9713 32.4133 84.3579 32.84 83.8513 33.4C83.3446 33.96 82.9579 34.6267 82.6913 35.4C82.4513 36.1733 82.3313 37.0133 82.3313 37.92V41.44C82.3313 42.3467 82.4513 43.1867 82.6913 43.96C82.9579 44.7333 83.3446 45.4 83.8513 45.96C84.3579 46.52 84.9846 46.96 85.7313 47.28C86.4779 47.5733 87.3313 47.72 88.2913 47.72C89.6779 47.72 90.8246 47.4 91.7313 46.76C92.6379 46.12 93.3579 45.24 93.8913 44.12L96.1713 45.68C95.5579 47.0667 94.5979 48.2133 93.2913 49.12C92.0113 50.0267 90.3313 50.48 88.2513 50.48ZM116.396 46.64H116.236C116.022 47.1467 115.756 47.64 115.436 48.12C115.116 48.5733 114.716 48.9733 114.236 49.32C113.782 49.6667 113.236 49.9467 112.596 50.16C111.956 50.3733 111.209 50.48 110.356 50.48C108.196 50.48 106.462 49.8 105.156 48.44C103.849 47.0533 103.196 45.1067 103.196 42.6V29.36H106.396V42.04C106.396 43.9333 106.809 45.3467 107.636 46.28C108.462 47.1867 109.676 47.64 111.276 47.64C111.916 47.64 112.542 47.56 113.156 47.4C113.769 47.24 114.316 47 114.796 46.68C115.276 46.36 115.662 45.96 115.956 45.48C116.249 44.9733 116.396 44.3733 116.396 43.68V29.36H119.596V50H116.396V46.64ZM128.3 50V22.08H131.66V47.08H144.9V50H128.3ZM159.844 50.48C158.351 50.48 157.004 50.2267 155.804 49.72C154.631 49.2133 153.618 48.4933 152.764 47.56C151.938 46.6 151.298 45.4667 150.844 44.16C150.391 42.8267 150.164 41.3467 150.164 39.72C150.164 38.0667 150.391 36.5733 150.844 35.24C151.324 33.9067 151.978 32.7733 152.804 31.84C153.631 30.88 154.618 30.1467 155.764 29.64C156.938 29.1333 158.231 28.88 159.644 28.88C161.031 28.88 162.284 29.1333 163.404 29.64C164.551 30.1467 165.524 30.8533 166.324 31.76C167.124 32.64 167.738 33.6933 168.164 34.92C168.591 36.1467 168.804 37.4933 168.804 38.96V40.48H153.524V41.44C153.524 42.3467 153.671 43.1867 153.964 43.96C154.258 44.7333 154.671 45.4 155.204 45.96C155.764 46.52 156.431 46.96 157.204 47.28C158.004 47.5733 158.884 47.72 159.844 47.72C161.231 47.72 162.431 47.4 163.444 46.76C164.458 46.12 165.231 45.24 165.764 44.12L168.124 45.72C167.511 47.1067 166.484 48.2533 165.044 49.16C163.631 50.04 161.898 50.48 159.844 50.48ZM159.644 31.52C158.764 31.52 157.951 31.68 157.204 32C156.458 32.32 155.804 32.76 155.244 33.32C154.711 33.88 154.284 34.5467 153.964 35.32C153.671 36.0667 153.524 36.8933 153.524 37.8V38.08H165.364V37.64C165.364 36.7333 165.218 35.9067 164.924 35.16C164.658 34.4133 164.271 33.7733 163.764 33.24C163.284 32.68 162.684 32.2533 161.964 31.96C161.271 31.6667 160.498 31.52 159.644 31.52ZM191.269 50C190.015 50 189.122 49.68 188.589 49.04C188.055 48.4 187.722 47.6 187.589 46.64H187.389C186.935 47.84 186.202 48.7867 185.189 49.48C184.202 50.1467 182.869 50.48 181.189 50.48C179.029 50.48 177.309 49.92 176.029 48.8C174.749 47.68 174.109 46.1467 174.109 44.2C174.109 42.28 174.802 40.8 176.189 39.76C177.602 38.72 179.869 38.2 182.989 38.2H187.389V36.16C187.389 34.64 186.962 33.5067 186.109 32.76C185.255 31.9867 184.042 31.6 182.469 31.6C181.082 31.6 179.949 31.88 179.069 32.44C178.189 32.9733 177.482 33.7067 176.949 34.64L174.789 33.04C175.055 32.5067 175.415 31.9867 175.869 31.48C176.322 30.9733 176.882 30.5333 177.549 30.16C178.215 29.76 178.975 29.4533 179.829 29.24C180.682 29 181.629 28.88 182.669 28.88C185.095 28.88 187.015 29.4933 188.429 30.72C189.869 31.9467 190.589 33.6533 190.589 35.84V47.2H193.469V50H191.269ZM181.749 47.8C182.575 47.8 183.322 47.7067 183.989 47.52C184.682 47.3067 185.282 47.04 185.789 46.72C186.295 46.3733 186.682 45.9733 186.949 45.52C187.242 45.04 187.389 44.5333 187.389 44V40.6H182.989C181.069 40.6 179.669 40.8667 178.789 41.4C177.909 41.9333 177.469 42.7067 177.469 43.72V44.56C177.469 45.6267 177.842 46.44 178.589 47C179.362 47.5333 180.415 47.8 181.749 47.8ZM198.533 47.28H204.573V32.08H198.533V29.36H207.773V34.56H207.973C208.4 32.9333 209.2 31.6667 210.373 30.76C211.573 29.8267 213.093 29.36 214.933 29.36H217.813V32.56H213.933C212.093 32.56 210.6 33.0933 209.453 34.16C208.333 35.2267 207.773 36.6267 207.773 38.36V47.28H215.773V50H198.533V47.28ZM223.358 50V29.36H226.558V32.72H226.718C226.931 32.2133 227.198 31.7333 227.518 31.28C227.838 30.8 228.224 30.3867 228.678 30.04C229.158 29.6933 229.718 29.4133 230.358 29.2C230.998 28.9867 231.744 28.88 232.598 28.88C234.758 28.88 236.491 29.5733 237.798 30.96C239.104 32.32 239.758 34.2533 239.758 36.76V50H236.558V37.32C236.558 35.4267 236.144 34.0267 235.318 33.12C234.491 32.1867 233.278 31.72 231.678 31.72C231.038 31.72 230.411 31.8 229.798 31.96C229.184 32.12 228.638 32.36 228.158 32.68C227.678 33 227.291 33.4133 226.998 33.92C226.704 34.4267 226.558 35.0133 226.558 35.68V50H223.358Z" fill="black"/>
<path d="M224.776 7.04H229.516C230.716 7.04 231.656 7.36667 232.336 8.02C233.016 8.67333 233.356 9.54667 233.356 10.64C233.356 11.48 233.149 12.14 232.736 12.62C232.336 13.1 231.816 13.44 231.176 13.64V13.7C231.962 13.8867 232.609 14.24 233.116 14.76C233.622 15.2667 233.876 16.0067 233.876 16.98C233.876 17.54 233.782 18.0667 233.596 18.56C233.409 19.0533 233.142 19.48 232.796 19.84C232.462 20.2 232.062 20.4867 231.596 20.7C231.142 20.9 230.649 21 230.116 21H224.776V7.04ZM229.616 19.54C230.389 19.54 230.996 19.3667 231.436 19.02C231.876 18.6733 232.096 18.14 232.096 17.42V16.6C232.096 15.8933 231.876 15.3667 231.436 15.02C230.996 14.66 230.389 14.48 229.616 14.48H226.456V19.54H229.616ZM229.336 13.1C230.042 13.1 230.596 12.9467 230.996 12.64C231.396 12.32 231.596 11.84 231.596 11.2V10.42C231.596 9.78 231.396 9.3 230.996 8.98C230.596 8.66 230.042 8.5 229.336 8.5H226.456V13.1H229.336ZM241.188 21.24C240.441 21.24 239.768 21.1133 239.168 20.86C238.581 20.6067 238.074 20.2467 237.648 19.78C237.234 19.3 236.914 18.7333 236.688 18.08C236.461 17.4133 236.348 16.6733 236.348 15.86C236.348 15.0333 236.461 14.2867 236.688 13.62C236.928 12.9533 237.254 12.3867 237.668 11.92C238.081 11.44 238.574 11.0733 239.148 10.82C239.734 10.5667 240.381 10.44 241.088 10.44C241.781 10.44 242.408 10.5667 242.968 10.82C243.541 11.0733 244.028 11.4267 244.428 11.88C244.828 12.32 245.134 12.8467 245.348 13.46C245.561 14.0733 245.668 14.7467 245.668 15.48V16.24H238.028V16.72C238.028 17.1733 238.101 17.5933 238.248 17.98C238.394 18.3667 238.601 18.7 238.868 18.98C239.148 19.26 239.481 19.48 239.868 19.64C240.268 19.7867 240.708 19.86 241.188 19.86C241.881 19.86 242.481 19.7 242.988 19.38C243.494 19.06 243.881 18.62 244.148 18.06L245.328 18.86C245.021 19.5533 244.508 20.1267 243.788 20.58C243.081 21.02 242.214 21.24 241.188 21.24ZM241.088 11.76C240.648 11.76 240.241 11.84 239.868 12C239.494 12.16 239.168 12.38 238.888 12.66C238.621 12.94 238.408 13.2733 238.248 13.66C238.101 14.0333 238.028 14.4467 238.028 14.9V15.04H243.948V14.82C243.948 14.3667 243.874 13.9533 243.728 13.58C243.594 13.2067 243.401 12.8867 243.148 12.62C242.908 12.34 242.608 12.1267 242.248 11.98C241.901 11.8333 241.514 11.76 241.088 11.76ZM253.5 21C252.713 21 252.133 20.78 251.76 20.34C251.4 19.9 251.22 19.3333 251.22 18.64V12.04H247.78V10.68H250.34C250.687 10.68 250.927 10.6133 251.06 10.48C251.207 10.3333 251.28 10.0867 251.28 9.74V7.04H252.82V10.68H257.52V12.04H252.82V19.64H257.52V21H253.5ZM268.892 21C268.266 21 267.819 20.84 267.552 20.52C267.286 20.2 267.119 19.8 267.052 19.32H266.952C266.726 19.92 266.359 20.3933 265.852 20.74C265.359 21.0733 264.692 21.24 263.852 21.24C262.772 21.24 261.912 20.96 261.272 20.4C260.632 19.84 260.312 19.0733 260.312 18.1C260.312 17.14 260.659 16.4 261.352 15.88C262.059 15.36 263.192 15.1 264.752 15.1H266.952V14.08C266.952 13.32 266.739 12.7533 266.312 12.38C265.886 11.9933 265.279 11.8 264.492 11.8C263.799 11.8 263.232 11.94 262.792 12.22C262.352 12.4867 261.999 12.8533 261.732 13.32L260.652 12.52C260.786 12.2533 260.966 11.9933 261.192 11.74C261.419 11.4867 261.699 11.2667 262.032 11.08C262.366 10.88 262.746 10.7267 263.172 10.62C263.599 10.5 264.072 10.44 264.592 10.44C265.806 10.44 266.766 10.7467 267.472 11.36C268.192 11.9733 268.552 12.8267 268.552 13.92V19.6H269.992V21H268.892ZM264.132 19.9C264.546 19.9 264.919 19.8533 265.252 19.76C265.599 19.6533 265.899 19.52 266.152 19.36C266.406 19.1867 266.599 18.9867 266.732 18.76C266.879 18.52 266.952 18.2667 266.952 18V16.3H264.752C263.792 16.3 263.092 16.4333 262.652 16.7C262.212 16.9667 261.992 17.3533 261.992 17.86V18.28C261.992 18.8133 262.179 19.22 262.552 19.5C262.939 19.7667 263.466 19.9 264.132 19.9Z" fill="black"/>
</svg>
