<?xml version="1.0" encoding="UTF-8" standalone="no" ?>
<!DOCTYPE svg PUBLIC "-//W3C//DTD SVG 1.1//EN" "http://www.w3.org/Graphics/SVG/1.1/DTD/svg11.dtd">
<svg xmlns="http://www.w3.org/2000/svg" xmlns:xlink="http://www.w3.org/1999/xlink" version="1.1" width="1080" height="750" viewBox="0 0 1080 750" xml:space="preserve">
<desc>Created with Fabric.js 5.2.4</desc>
<defs>
</defs>
<g transform="matrix(1 0 0 1 540 375)" id="41d4733a-d429-4fc9-97e9-3bbf9a103702"  >
<rect style="stroke: none; stroke-width: 1; stroke-dasharray: none; stroke-linecap: butt; stroke-dashoffset: 0; stroke-linejoin: miter; stroke-miterlimit: 4; fill: rgb(255,255,255); fill-rule: nonzero; opacity: 1; visibility: hidden;" vector-effect="non-scaling-stroke"  x="-540" y="-375" rx="0" ry="0" width="1080" height="750" />
</g>
<g transform="matrix(Infinity NaN NaN Infinity 0 0)" id="747b4175-210e-4cda-b70c-96133da4bd8c"  >
</g>
<g transform="matrix(3.79 0 0 3.79 540 375)"  >
<g style="" vector-effect="non-scaling-stroke"   >
		<g transform="matrix(1 0 0 1 -96.58 11.68)"  >
<path style="stroke: none; stroke-width: 1; stroke-dasharray: none; stroke-linecap: butt; stroke-dashoffset: 0; stroke-linejoin: miter; stroke-miterlimit: 4; fill: rgb(230,231,232); fill-rule: nonzero; opacity: 1;" vector-effect="non-scaling-stroke"  transform=" translate(-116.32, -157.79)" d="M 116.32 232.59 C 116.0438576250846 232.59 115.82 232.3661423749154 115.82 232.09 L 115.82 83.49 C 115.82 83.2138576250846 116.0438576250846 82.99 116.32 82.99 C 116.59614237491539 82.99 116.82 83.2138576250846 116.82 83.49 L 116.82 232.08999999999997 C 116.82000000000001 232.22260824491974 116.76732157981729 232.34978520136923 116.67355339059328 232.44355339059328 C 116.57978520136926 232.5373215798173 116.45260824491977 232.59 116.32 232.59 Z" stroke-linecap="round" />
</g>
		<g transform="matrix(1 0 0 1 -67.23 11.68)"  >
<path style="stroke: none; stroke-width: 1; stroke-dasharray: none; stroke-linecap: butt; stroke-dashoffset: 0; stroke-linejoin: miter; stroke-miterlimit: 4; fill: rgb(230,231,232); fill-rule: nonzero; opacity: 1;" vector-effect="non-scaling-stroke"  transform=" translate(-145.67, -157.79)" d="M 145.67 232.59 C 145.39609154745682 232.5846798942243 145.17532010577568 232.36390845254317 145.17 232.09 L 145.17 83.49 C 145.17 83.2138576250846 145.3938576250846 82.99 145.67 82.99 C 145.94614237491538 82.99 146.17 83.2138576250846 146.17 83.49 L 146.17 232.08999999999997 C 146.17 232.22260824491974 146.1173215798173 232.34978520136923 146.02355339059326 232.44355339059328 C 145.92978520136924 232.5373215798173 145.80260824491975 232.59 145.67 232.59 Z" stroke-linecap="round" />
</g>
		<g transform="matrix(1 0 0 1 -37.9 11.68)"  >
<path style="stroke: none; stroke-width: 1; stroke-dasharray: none; stroke-linecap: butt; stroke-dashoffset: 0; stroke-linejoin: miter; stroke-miterlimit: 4; fill: rgb(230,231,232); fill-rule: nonzero; opacity: 1;" vector-effect="non-scaling-stroke"  transform=" translate(-175, -157.79)" d="M 175 232.59 C 174.72609154745683 232.5846798942243 174.5053201057757 232.36390845254317 174.5 232.09 L 174.5 83.49 C 174.5 83.2138576250846 174.7238576250846 82.99 175 82.99 C 175.2761423749154 82.99 175.5 83.2138576250846 175.5 83.49 L 175.5 232.08999999999997 C 175.5 232.22260824491974 175.4473215798173 232.34978520136923 175.35355339059328 232.44355339059328 C 175.25978520136925 232.5373215798173 175.13260824491977 232.59 175 232.59 Z" stroke-linecap="round" />
</g>
		<g transform="matrix(1 0 0 1 -8.52 11.68)"  >
<path style="stroke: none; stroke-width: 1; stroke-dasharray: none; stroke-linecap: butt; stroke-dashoffset: 0; stroke-linejoin: miter; stroke-miterlimit: 4; fill: rgb(230,231,232); fill-rule: nonzero; opacity: 1;" vector-effect="non-scaling-stroke"  transform=" translate(-204.38, -157.79)" d="M 204.38 232.59 C 204.1038576250846 232.59 203.88 232.3661423749154 203.88 232.09 L 203.88 83.49 C 203.88 83.2138576250846 204.1038576250846 82.99 204.38 82.99 C 204.6561423749154 82.99 204.88 83.2138576250846 204.88 83.49 L 204.88 232.08999999999997 C 204.8746798942243 232.36390845254314 204.65390845254316 232.5846798942243 204.38 232.59 Z" stroke-linecap="round" />
</g>
		<g transform="matrix(1 0 0 1 20.83 11.68)"  >
<path style="stroke: none; stroke-width: 1; stroke-dasharray: none; stroke-linecap: butt; stroke-dashoffset: 0; stroke-linejoin: miter; stroke-miterlimit: 4; fill: rgb(230,231,232); fill-rule: nonzero; opacity: 1;" vector-effect="non-scaling-stroke"  transform=" translate(-233.73, -157.79)" d="M 233.73 232.59 C 233.4538576250846 232.59 233.23 232.3661423749154 233.23 232.09 L 233.23 83.49 C 233.23 83.2138576250846 233.4538576250846 82.99 233.73 82.99 C 234.00614237491538 82.99 234.23 83.2138576250846 234.23 83.49 L 234.23 232.08999999999997 C 234.2246798942243 232.36390845254314 234.00390845254316 232.5846798942243 233.73 232.59 Z" stroke-linecap="round" />
</g>
		<g transform="matrix(1 0 0 1 50.18 11.68)"  >
<path style="stroke: none; stroke-width: 1; stroke-dasharray: none; stroke-linecap: butt; stroke-dashoffset: 0; stroke-linejoin: miter; stroke-miterlimit: 4; fill: rgb(230,231,232); fill-rule: nonzero; opacity: 1;" vector-effect="non-scaling-stroke"  transform=" translate(-263.08, -157.79)" d="M 263.08 232.59 C 262.80385762508456 232.59 262.58 232.3661423749154 262.58 232.09 L 262.58 83.49 C 262.58 83.2138576250846 262.80385762508456 82.99 263.08 82.99 C 263.3561423749154 82.99 263.58 83.2138576250846 263.58 83.49 L 263.58 232.08999999999997 C 263.58 232.22260824491974 263.5273215798173 232.34978520136923 263.43355339059326 232.44355339059328 C 263.33978520136924 232.5373215798173 263.21260824491975 232.59 263.08 232.59 Z" stroke-linecap="round" />
</g>
		<g transform="matrix(1 0 0 1 79.53 11.68)"  >
<path style="stroke: none; stroke-width: 1; stroke-dasharray: none; stroke-linecap: butt; stroke-dashoffset: 0; stroke-linejoin: miter; stroke-miterlimit: 4; fill: rgb(230,231,232); fill-rule: nonzero; opacity: 1;" vector-effect="non-scaling-stroke"  transform=" translate(-292.43, -157.79)" d="M 292.43 232.59 C 292.1560915474568 232.5846798942243 291.9353201057757 232.36390845254317 291.93 232.09 L 291.93 83.49 C 291.93 83.2138576250846 292.1538576250846 82.99 292.43 82.99 C 292.70614237491543 82.99 292.93 83.2138576250846 292.93 83.49 L 292.93 232.08999999999997 C 292.93 232.22260824491974 292.8773215798173 232.34978520136923 292.7835533905933 232.44355339059328 C 292.68978520136926 232.5373215798173 292.5626082449198 232.59 292.43 232.59 Z" stroke-linecap="round" />
</g>
		<g transform="matrix(1 0 0 1 108.88 11.68)"  >
<path style="stroke: none; stroke-width: 1; stroke-dasharray: none; stroke-linecap: butt; stroke-dashoffset: 0; stroke-linejoin: miter; stroke-miterlimit: 4; fill: rgb(230,231,232); fill-rule: nonzero; opacity: 1;" vector-effect="non-scaling-stroke"  transform=" translate(-321.78, -157.79)" d="M 321.78 232.59 C 321.5060915474568 232.5846798942243 321.28532010577567 232.36390845254317 321.28 232.09 L 321.28 83.49 C 321.28 83.2138576250846 321.50385762508455 82.99 321.78 82.99 C 322.0561423749154 82.99 322.28 83.2138576250846 322.28 83.49 L 322.28 232.08999999999997 C 322.28 232.22260824491974 322.22732157981727 232.34978520136923 322.13355339059325 232.44355339059328 C 322.0397852013692 232.5373215798173 321.91260824491974 232.59 321.78 232.59 Z" stroke-linecap="round" />
</g>
		<g transform="matrix(1 0 0 1 -9.73 -62.61)"  >
<path style="stroke: none; stroke-width: 1; stroke-dasharray: none; stroke-linecap: butt; stroke-dashoffset: 0; stroke-linejoin: miter; stroke-miterlimit: 4; fill: rgb(230,231,232); fill-rule: nonzero; opacity: 1;" vector-effect="non-scaling-stroke"  transform=" translate(-203.17, -83.5)" d="M 321.78 84 L 84.57 84 C 84.2938576250846 84 84.07 83.7761423749154 84.07 83.5 C 84.07 83.2238576250846 84.2938576250846 83 84.57 83 L 321.78 83 C 322.0561423749154 83 322.28 83.2238576250846 322.28 83.5 C 322.28 83.7761423749154 322.0561423749154 84 321.78 84 Z" stroke-linecap="round" />
</g>
		<g transform="matrix(1 0 0 1 -9.73 -33.27)"  >
<path style="stroke: none; stroke-width: 1; stroke-dasharray: none; stroke-linecap: butt; stroke-dashoffset: 0; stroke-linejoin: miter; stroke-miterlimit: 4; fill: rgb(230,231,232); fill-rule: nonzero; opacity: 1;" vector-effect="non-scaling-stroke"  transform=" translate(-203.17, -112.84)" d="M 321.78 113.34 L 84.57 113.34 C 84.2938576250846 113.34 84.07 113.1161423749154 84.07 112.84 C 84.07 112.56385762508461 84.2938576250846 112.34 84.57 112.34 L 321.78 112.34 C 322.0561423749154 112.34 322.28 112.56385762508461 322.28 112.84 C 322.28 113.1161423749154 322.0561423749154 113.34 321.78 113.34 Z" stroke-linecap="round" />
</g>
		<g transform="matrix(1 0 0 1 -9.73 -3.91)"  >
<path style="stroke: none; stroke-width: 1; stroke-dasharray: none; stroke-linecap: butt; stroke-dashoffset: 0; stroke-linejoin: miter; stroke-miterlimit: 4; fill: rgb(230,231,232); fill-rule: nonzero; opacity: 1;" vector-effect="non-scaling-stroke"  transform=" translate(-203.17, -142.2)" d="M 321.78 142.7 L 84.57 142.7 C 84.2938576250846 142.7 84.07 142.47614237491538 84.07 142.2 C 84.07 141.9238576250846 84.2938576250846 141.7 84.57 141.7 L 321.78 141.7 C 322.0561423749154 141.7 322.28 141.9238576250846 322.28 142.2 C 322.28 142.47614237491538 322.0561423749154 142.7 321.78 142.7 Z" stroke-linecap="round" />
</g>
		<g transform="matrix(1 0 0 1 -9.73 25.44)"  >
<path style="stroke: none; stroke-width: 1; stroke-dasharray: none; stroke-linecap: butt; stroke-dashoffset: 0; stroke-linejoin: miter; stroke-miterlimit: 4; fill: rgb(230,231,232); fill-rule: nonzero; opacity: 1;" vector-effect="non-scaling-stroke"  transform=" translate(-203.17, -171.55)" d="M 321.78 172.05 L 84.57 172.05 C 84.2938576250846 172.05 84.07 171.8261423749154 84.07 171.55 C 84.07 171.27385762508462 84.2938576250846 171.05 84.57 171.05 L 321.78 171.05 C 322.0561423749154 171.05 322.28 171.27385762508462 322.28 171.55 C 322.28 171.8261423749154 322.0561423749154 172.05 321.78 172.05 Z" stroke-linecap="round" />
</g>
		<g transform="matrix(1 0 0 1 -9.73 54.79)"  >
<path style="stroke: none; stroke-width: 1; stroke-dasharray: none; stroke-linecap: butt; stroke-dashoffset: 0; stroke-linejoin: miter; stroke-miterlimit: 4; fill: rgb(230,231,232); fill-rule: nonzero; opacity: 1;" vector-effect="non-scaling-stroke"  transform=" translate(-203.17, -200.9)" d="M 321.78 201.4 L 84.57 201.4 C 84.2938576250846 201.4 84.07 201.1761423749154 84.07 200.9 C 84.07 200.6238576250846 84.2938576250846 200.4 84.57 200.4 L 321.78 200.4 C 322.0561423749154 200.4 322.28 200.6238576250846 322.28 200.9 C 322.28 201.1761423749154 322.0561423749154 201.4 321.78 201.4 Z" stroke-linecap="round" />
</g>
		<g transform="matrix(1 0 0 1 -9.73 84.14)"  >
<path style="stroke: none; stroke-width: 1; stroke-dasharray: none; stroke-linecap: butt; stroke-dashoffset: 0; stroke-linejoin: miter; stroke-miterlimit: 4; fill: rgb(230,231,232); fill-rule: nonzero; opacity: 1;" vector-effect="non-scaling-stroke"  transform=" translate(-203.17, -230.25)" d="M 321.78 230.75 L 84.57 230.75 C 84.2938576250846 230.75 84.07 230.5261423749154 84.07 230.25 C 84.07 229.9738576250846 84.2938576250846 229.75 84.57 229.75 L 321.78 229.75 C 322.0561423749154 229.75 322.28 229.9738576250846 322.28 230.25 C 322.28 230.5261423749154 322.0561423749154 230.75 321.78 230.75 Z" stroke-linecap="round" />
</g>
		<g transform="matrix(1 0 0 1 -0.52 4.56)"  >
<path style="stroke: none; stroke-width: 1; stroke-dasharray: none; stroke-linecap: butt; stroke-dashoffset: 0; stroke-linejoin: miter; stroke-miterlimit: 4; fill: rgb(35,31,32); fill-rule: nonzero; opacity: 1;" vector-effect="non-scaling-stroke"  transform=" translate(-212.38, -150.67)" d="M 340.19 234.67 L 84.57 234.67 C 82.63700337559222 234.67 81.07 233.10299662440775 81.07 231.17 L 81.07 70.16999999999999 C 81.07 68.23700337559221 82.63700337559222 66.66999999999999 84.57 66.66999999999999 C 86.50299662440777 66.66999999999999 88.07 68.23700337559221 88.07 70.16999999999999 L 88.07 227.67 L 340.19 227.67 C 342.1229966244078 227.67 343.69 229.23700337559222 343.69 231.17 C 343.69 233.10299662440775 342.1229966244078 234.67 340.19 234.67 Z" stroke-linecap="round" />
</g>
		<g transform="matrix(1 0 0 1 -96.58 54.79)"  >
<circle style="stroke: none; stroke-width: 1; stroke-dasharray: none; stroke-linecap: butt; stroke-dashoffset: 0; stroke-linejoin: miter; stroke-miterlimit: 4; fill: rgb(244,206,20); fill-rule: nonzero; opacity: 1;" vector-effect="non-scaling-stroke"  cx="0" cy="0" r="6.4" />
</g>
		<g transform="matrix(1 0 0 1 -35.98 27.75)"  >
<circle style="stroke: none; stroke-width: 1; stroke-dasharray: none; stroke-linecap: butt; stroke-dashoffset: 0; stroke-linejoin: miter; stroke-miterlimit: 4; fill: rgb(244,206,20); fill-rule: nonzero; opacity: 1;" vector-effect="non-scaling-stroke"  cx="0" cy="0" r="6.4" />
</g>
		<g transform="matrix(1 0 0 1 -37.88 -35.47)"  >
<circle style="stroke: none; stroke-width: 1; stroke-dasharray: none; stroke-linecap: butt; stroke-dashoffset: 0; stroke-linejoin: miter; stroke-miterlimit: 4; fill: rgb(35,31,32); fill-rule: nonzero; opacity: 1;" vector-effect="non-scaling-stroke"  cx="0" cy="0" r="6.4" />
</g>
		<g transform="matrix(1 0 0 1 20.83 -46.63)"  >
<circle style="stroke: none; stroke-width: 1; stroke-dasharray: none; stroke-linecap: butt; stroke-dashoffset: 0; stroke-linejoin: miter; stroke-miterlimit: 4; fill: rgb(35,31,32); fill-rule: nonzero; opacity: 1;" vector-effect="non-scaling-stroke"  cx="0" cy="0" r="6.4" />
</g>
		<g transform="matrix(1 0 0 1 77.96 -29.07)"  >
<circle style="stroke: none; stroke-width: 1; stroke-dasharray: none; stroke-linecap: butt; stroke-dashoffset: 0; stroke-linejoin: miter; stroke-miterlimit: 4; fill: rgb(35,31,32); fill-rule: nonzero; opacity: 1;" vector-effect="non-scaling-stroke"  cx="0" cy="0" r="6.4" />
</g>
		<g transform="matrix(1 0 0 1 -96.58 -3.92)"  >
<circle style="stroke: none; stroke-width: 1; stroke-dasharray: none; stroke-linecap: butt; stroke-dashoffset: 0; stroke-linejoin: miter; stroke-miterlimit: 4; fill: rgb(35,31,32); fill-rule: nonzero; opacity: 1;" vector-effect="non-scaling-stroke"  cx="0" cy="0" r="6.4" />
</g>
		<g transform="matrix(1 0 0 1 20.83 54.79)"  >
<circle style="stroke: none; stroke-width: 1; stroke-dasharray: none; stroke-linecap: butt; stroke-dashoffset: 0; stroke-linejoin: miter; stroke-miterlimit: 4; fill: rgb(244,206,20); fill-rule: nonzero; opacity: 1;" vector-effect="non-scaling-stroke"  cx="0" cy="0" r="6.4" />
</g>
		<g transform="matrix(1 0 0 1 79.53 -3.92)"  >
<circle style="stroke: none; stroke-width: 1; stroke-dasharray: none; stroke-linecap: butt; stroke-dashoffset: 0; stroke-linejoin: miter; stroke-miterlimit: 4; fill: rgb(244,206,20); fill-rule: nonzero; opacity: 1;" vector-effect="non-scaling-stroke"  cx="0" cy="0" r="6.4" />
</g>
		<g transform="matrix(1 0 0 1 -10.1 25.44)"  >
<path style="stroke: none; stroke-width: 1; stroke-dasharray: none; stroke-linecap: butt; stroke-dashoffset: 0; stroke-linejoin: miter; stroke-miterlimit: 4; fill: rgb(244,206,20); fill-rule: nonzero; opacity: 1;" vector-effect="non-scaling-stroke"  transform=" translate(-202.81, -171.55)" d="M 233.73 202.9 C 233.43201345823485 202.89823405637682 233.13818736432177 202.8299024066296 232.86999999999998 202.70000000000002 L 176.86999999999998 176.05 L 114.05999999999997 202.11 C 113.39267978975263 202.42818353538883 112.60426285674814 202.35229036679664 112.00989034231436 201.91265604229187 C 111.41551782788058 201.47302171778713 111.11214646792614 200.74136137907348 111.22103798657193 200.01012977256016 C 111.32992950521772 199.27889816604682 111.83332102487495 198.66737710244854 112.52999999999997 198.42000000000002 L 176.15 172 C 176.67576241649414 171.78433778112284 177.2684444548902 171.8025182117485 177.78 172.05 L 233.31 198.48000000000002 L 291 140.78 C 291.7814829210106 139.99851707898944 293.04851707898945 139.99851707898944 293.83 140.78 C 294.6114829210106 141.5614829210106 294.6114829210106 142.82851707898945 293.83 143.61 L 235.11999999999998 202.31 C 234.75156271532677 202.68074306573456 234.25262846914313 202.89252091123697 233.73 202.9 Z" stroke-linecap="round" />
</g>
		<g transform="matrix(1 0 0 1 -9.27 -25.27)"  >
<path style="stroke: none; stroke-width: 1; stroke-dasharray: none; stroke-linecap: butt; stroke-dashoffset: 0; stroke-linejoin: miter; stroke-miterlimit: 4; fill: rgb(35,31,32); fill-rule: nonzero; opacity: 1;" vector-effect="non-scaling-stroke"  transform=" translate(-203.63, -120.84)" d="M 116.32 144.2 C 115.396618452008 144.20876759600176 114.58727606740842 143.5842231223602 114.36163686741575 142.68879177081033 C 114.13599766742308 141.79336041926047 114.55272886946071 140.85985841052465 115.36999999999999 140.42999999999998 L 174.07999999999998 108.87999999999998 C 174.26189662103337 108.78390041840257 174.4575311864907 108.71644022341728 174.66 108.67999999999998 L 235.12 97.51999999999998 C 235.45302569634364 97.45484107503036 235.79715451092025 97.47548880390497 236.12 97.57999999999998 L 291.5 115.13999999999999 C 292.20436788142894 115.33670425238802 292.74521087523567 115.9021719284388 292.9103796682926 116.61459451728362 C 293.07554846134946 117.32701710612842 292.8387036231999 118.07278473699613 292.292749139486 118.55936502534416 C 291.746794655772 119.0459453136922 290.9787937658026 119.19574340985608 290.29 118.94999999999999 L 235.38000000000002 101.53999999999999 L 175.73000000000002 112.53999999999999 L 117.27 144 C 116.97456534778892 144.1436782549674 116.64828660415878 144.21236851678427 116.32 144.2 Z" stroke-linecap="round" />
</g>
		<g transform="matrix(1 0 0 1 -128.34 -79.14)"  >
<path style="stroke: none; stroke-width: 1; stroke-dasharray: none; stroke-linecap: butt; stroke-dashoffset: 0; stroke-linejoin: miter; stroke-miterlimit: 4; fill: rgb(35,31,32); fill-rule: nonzero; opacity: 1;" vector-effect="non-scaling-stroke"  transform=" translate(-84.57, -66.97)" d="M 91.92 75.18 L 77.21 75.18 C 76.46679415417206 75.20506002693256 75.77104687994425 74.81570724056071 75.40368754195833 74.1691548057055 C 75.03632820397242 73.52260237085028 75.058018382221 72.72561466829866 75.46 72.10000000000001 L 82.82 59.78000000000001 C 83.17370700413878 59.14839859140408 83.84110153742586 58.75722822308815 84.565 58.75722822308815 C 85.28889846257412 58.75722822308815 85.9562929958612 59.14839859140408 86.30999999999999 59.78000000000001 L 93.67 72.1 C 94.07198161777902 72.72561466829865 94.09367179602759 73.52260237085028 93.72631245804168 74.16915480570549 C 93.35895312005576 74.81570724056071 92.66320584582793 75.20506002693256 91.92 75.18 Z" stroke-linecap="round" />
</g>
		<g transform="matrix(1 0 0 1 129.55 85.06)"  >
<path style="stroke: none; stroke-width: 1; stroke-dasharray: none; stroke-linecap: butt; stroke-dashoffset: 0; stroke-linejoin: miter; stroke-miterlimit: 4; fill: rgb(35,31,32); fill-rule: nonzero; opacity: 1;" vector-effect="non-scaling-stroke"  transform=" translate(-342.46, -231.16)" d="M 334.25 238.53 L 334.25 223.81 C 334.2249399730675 223.06679415417207 334.6142927594393 222.37104687994426 335.2608451942945 222.00368754195836 C 335.9073976291497 221.63632820397243 336.7043853317013 221.658018382221 337.33 222.06 L 349.64 229.42000000000002 C 350.2716014085959 229.7737070041388 350.6627717769119 230.44110153742588 350.6627717769119 231.16500000000002 C 350.6627717769119 231.88889846257416 350.2716014085959 232.55629299586124 349.64 232.91000000000003 L 337.33 240.27000000000004 C 336.7059092193345 240.670835844189 335.9112380100922 240.6933651641071 335.2654401160198 240.3285312888844 C 334.6196422219475 239.9636974136617 334.22878844668423 239.2714234596398 334.25 238.53 Z" stroke-linecap="round" />
</g>
		<g transform="matrix(1 0 0 1 -33.03 -70.93)"  >
<path style="stroke: none; stroke-width: 1; stroke-dasharray: none; stroke-linecap: butt; stroke-dashoffset: 0; stroke-linejoin: miter; stroke-miterlimit: 4; fill: rgb(244,206,20); fill-rule: nonzero; opacity: 1;" vector-effect="non-scaling-stroke"  transform=" translate(-179.88, -75.17)" d="M 202.14 51.63 L 157.56 51.63 C 154.90579226746678 51.63550096637798 152.75550096637798 53.785792267466775 152.75 56.440000000000005 L 152.75 83.55 C 152.74999427929316 86.20811213628907 154.9018935844116 88.36448524453667 157.56 88.37 L 161.87 88.37 L 171.29 98.72 L 171.29 88.37 L 202.14 88.37 C 203.42606782122724 88.38337233694776 204.663924523734 87.881139634869 205.5771111645166 86.97546893351674 C 206.49029780529915 86.06979823216449 207.00274340208654 84.8361344151902 207 83.55 L 207 56.44 C 207.00006939571057 55.15559818191138 206.48644517777714 53.924517079860685 205.57355212965476 53.02101593552555 C 204.66065908153234 52.11751479119041 203.42433242425275 51.6166486278554 202.14 51.63 Z" stroke-linecap="round" />
</g>
		<g transform="matrix(1 0 0 1 98.53 42.24)"  >
<path style="stroke: none; stroke-width: 1; stroke-dasharray: none; stroke-linecap: butt; stroke-dashoffset: 0; stroke-linejoin: miter; stroke-miterlimit: 4; fill: rgb(244,206,20); fill-rule: nonzero; opacity: 1;" vector-effect="non-scaling-stroke"  transform=" translate(-311.44, -188.35)" d="M 333.65 174.34 L 297 174.34 L 289.54 162 L 289.54 174.37 L 289.22 174.37 C 286.59112459080546 174.37 284.46000000000004 176.50112459080543 284.46000000000004 179.13 L 284.46000000000004 209.94 C 284.465514653592 212.56496932010722 286.5950248871895 214.69000579270974 289.22 214.69 L 333.65000000000003 214.69 C 336.2749751128106 214.69000579270974 338.4044853464081 212.56496932010722 338.41 209.94 L 338.41 179.1 C 338.41 177.83756950836377 337.90850143986063 176.62684488296466 337.015828278448 175.734171721552 C 336.1231551170353 174.84149856013937 334.9124304916362 174.34 333.65 174.34 Z" stroke-linecap="round" />
</g>
		<g transform="matrix(1 0 0 1 -33.05 -82.68)"  >
<path style="stroke: none; stroke-width: 1; stroke-dasharray: none; stroke-linecap: butt; stroke-dashoffset: 0; stroke-linejoin: miter; stroke-miterlimit: 4; fill: rgb(255,255,255); fill-rule: nonzero; opacity: 1;" vector-effect="non-scaling-stroke"  transform=" translate(-179.86, -63.43)" d="M 197.5 63.93 L 162.21 63.93 C 161.9338576250846 63.93 161.71 63.706142374915395 161.71 63.43 C 161.71 63.153857625084605 161.9338576250846 62.93 162.21 62.93 L 197.5 62.93 C 197.7761423749154 62.93 198 63.153857625084605 198 63.43 C 197.9946798942243 63.70390845254317 197.77390845254317 63.9246798942243 197.5 63.93 Z" stroke-linecap="round" />
</g>
		<g transform="matrix(1 0 0 1 -36.99 -72.61)"  >
<path style="stroke: none; stroke-width: 1; stroke-dasharray: none; stroke-linecap: butt; stroke-dashoffset: 0; stroke-linejoin: miter; stroke-miterlimit: 4; fill: rgb(255,255,255); fill-rule: nonzero; opacity: 1;" vector-effect="non-scaling-stroke"  transform=" translate(-175.91, -73.5)" d="M 189.61 74 L 162.21 74 C 161.9338576250846 74 161.71 73.7761423749154 161.71 73.5 C 161.71 73.2238576250846 161.9338576250846 73 162.21 73 L 189.61 73 C 189.8861423749154 73 190.11 73.2238576250846 190.11 73.5 C 190.11 73.7761423749154 189.8861423749154 74 189.61 74 Z" stroke-linecap="round" />
</g>
		<g transform="matrix(1 0 0 1 98.53 43.39)"  >
<path style="stroke: none; stroke-width: 1; stroke-dasharray: none; stroke-linecap: butt; stroke-dashoffset: 0; stroke-linejoin: miter; stroke-miterlimit: 4; fill: rgb(255,255,255); fill-rule: nonzero; opacity: 1;" vector-effect="non-scaling-stroke"  transform=" translate(-311.44, -189.5)" d="M 329.08 190 L 293.79 190 C 293.5160915474568 189.9946798942243 293.2953201057757 189.77390845254317 293.29 189.5 C 293.29 189.2238576250846 293.5138576250846 189 293.79 189 L 329.08000000000004 189 C 329.35614237491546 189 329.58000000000004 189.2238576250846 329.58000000000004 189.5 C 329.58000000000004 189.6326082449198 329.52732157981734 189.75978520136928 329.4335533905933 189.8535533905933 C 329.33978520136924 189.9473215798173 329.21260824491975 190.00000000000003 329.08 190 Z" stroke-linecap="round" />
</g>
		<g transform="matrix(1 0 0 1 94.59 53.39)"  >
<path style="stroke: none; stroke-width: 1; stroke-dasharray: none; stroke-linecap: butt; stroke-dashoffset: 0; stroke-linejoin: miter; stroke-miterlimit: 4; fill: rgb(255,255,255); fill-rule: nonzero; opacity: 1;" vector-effect="non-scaling-stroke"  transform=" translate(-307.5, -199.5)" d="M 321.2 200 L 293.79 200 C 293.5160915474568 199.9946798942243 293.2953201057757 199.77390845254317 293.29 199.5 C 293.29 199.2238576250846 293.5138576250846 199 293.79 199 L 321.2 199 C 321.4761423749154 199 321.7 199.2238576250846 321.7 199.5 C 321.6946798942243 199.77390845254317 321.4739084525432 199.9946798942243 321.2 200 Z" stroke-linecap="round" />
</g>
</g>
</g>
</svg>