<?xml version="1.0" encoding="UTF-8" standalone="no" ?>
<!DOCTYPE svg PUBLIC "-//W3C//DTD SVG 1.1//EN" "http://www.w3.org/Graphics/SVG/1.1/DTD/svg11.dtd">
<svg xmlns="http://www.w3.org/2000/svg" xmlns:xlink="http://www.w3.org/1999/xlink" version="1.1" width="1080" height="680" viewBox="0 0 1080 680" xml:space="preserve">
<desc>Created with Fabric.js 5.2.4</desc>
<defs>
</defs>
<g transform="matrix(1 0 0 1 540 340)" id="c85f0c17-dd83-437f-8ee0-1a73958995c3"  >
<rect style="stroke: none; stroke-width: 1; stroke-dasharray: none; stroke-linecap: butt; stroke-dashoffset: 0; stroke-linejoin: miter; stroke-miterlimit: 4; fill: rgb(255,255,255); fill-rule: nonzero; opacity: 1; visibility: hidden;" vector-effect="non-scaling-stroke"  x="-540" y="-340" rx="0" ry="0" width="1080" height="680" />
</g>
<g transform="matrix(Infinity NaN NaN Infinity 0 0)" id="a3c9eee8-684f-4943-8d19-3a833c3e9b87"  >
</g>
<g transform="matrix(3.44 0 0 3.44 541.89 331.87)"  >
<g style="" vector-effect="non-scaling-stroke"   >
		<g transform="matrix(1 0 0 1 56.08 -20.1)"  >
<rect style="stroke: none; stroke-width: 1; stroke-dasharray: none; stroke-linecap: butt; stroke-dashoffset: 0; stroke-linejoin: miter; stroke-miterlimit: 4; fill: rgb(255,255,255); fill-rule: nonzero; opacity: 1;" vector-effect="non-scaling-stroke"  x="-96.32" y="-71.815" rx="0" ry="0" width="192.64" height="143.63" />
</g>
		<g transform="matrix(1 0 0 1 56.08 -20.1)"  >
<path style="stroke: none; stroke-width: 1; stroke-dasharray: none; stroke-linecap: butt; stroke-dashoffset: 0; stroke-linejoin: miter; stroke-miterlimit: 4; fill: rgb(35,31,32); fill-rule: nonzero; opacity: 1;" vector-effect="non-scaling-stroke"  transform=" translate(-256.07, -129.91)" d="M 352.39 202.22 L 159.76 202.22 C 159.4838576250846 202.22 159.26 201.9961423749154 159.26 201.72 L 159.26 58.09 C 159.26 57.81385762508461 159.4838576250846 57.59 159.76 57.59 L 352.39 57.59 C 352.6661423749154 57.59 352.89 57.81385762508461 352.89 58.09 L 352.89 201.72 C 352.89 201.9961423749154 352.6661423749154 202.22 352.39 202.22 Z M 160.26 201.22 L 351.89 201.22 L 351.89 58.59 L 160.26 58.59 Z" stroke-linecap="round" />
</g>
		<g transform="matrix(1 0 0 1 18.32 -9.28)"  >
<path style="stroke: none; stroke-width: 1; stroke-dasharray: none; stroke-linecap: butt; stroke-dashoffset: 0; stroke-linejoin: miter; stroke-miterlimit: 4; fill: rgb(209,211,212); fill-rule: nonzero; opacity: 1;" vector-effect="non-scaling-stroke"  transform=" translate(-218.32, -140.72)" d="M 249.22 141.22 L 187.42000000000002 141.22 C 187.14385762508462 141.22 186.92000000000002 140.9961423749154 186.92000000000002 140.72 C 186.92000000000002 140.4438576250846 187.14385762508462 140.22 187.42000000000002 140.22 L 249.22000000000003 140.22 C 249.49614237491542 140.22 249.72000000000003 140.4438576250846 249.72000000000003 140.72 C 249.72000000000003 140.9961423749154 249.49614237491542 141.22 249.22000000000003 141.22 Z" stroke-linecap="round" />
</g>
		<g transform="matrix(1 0 0 1 18.32 -0.5)"  >
<path style="stroke: none; stroke-width: 1; stroke-dasharray: none; stroke-linecap: butt; stroke-dashoffset: 0; stroke-linejoin: miter; stroke-miterlimit: 4; fill: rgb(209,211,212); fill-rule: nonzero; opacity: 1;" vector-effect="non-scaling-stroke"  transform=" translate(-218.32, -149.5)" d="M 249.22 150 L 187.42000000000002 150 C 187.14385762508462 150 186.92000000000002 149.7761423749154 186.92000000000002 149.5 C 186.92000000000002 149.2238576250846 187.14385762508462 149 187.42000000000002 149 L 249.22000000000003 149 C 249.49614237491542 149 249.72000000000003 149.2238576250846 249.72000000000003 149.5 C 249.72000000000003 149.7761423749154 249.49614237491542 150 249.22000000000003 150 Z" stroke-linecap="round" />
</g>
		<g transform="matrix(1 0 0 1 18.32 8.22)"  >
<path style="stroke: none; stroke-width: 1; stroke-dasharray: none; stroke-linecap: butt; stroke-dashoffset: 0; stroke-linejoin: miter; stroke-miterlimit: 4; fill: rgb(209,211,212); fill-rule: nonzero; opacity: 1;" vector-effect="non-scaling-stroke"  transform=" translate(-218.32, -158.22)" d="M 249.22 158.72 L 187.42000000000002 158.72 C 187.14385762508462 158.72 186.92000000000002 158.4961423749154 186.92000000000002 158.22 C 186.92000000000002 157.9438576250846 187.14385762508462 157.72 187.42000000000002 157.72 L 249.22000000000003 157.72 C 249.49614237491542 157.72 249.72000000000003 157.9438576250846 249.72000000000003 158.22 C 249.72000000000003 158.35260824491976 249.66732157981733 158.47978520136925 249.5735533905933 158.57355339059328 C 249.47978520136925 158.6673215798173 249.35260824491976 158.72 249.22 158.72 Z" stroke-linecap="round" />
</g>
		<g transform="matrix(1 0 0 1 56.08 -20.1)"  >
<path style="stroke: none; stroke-width: 1; stroke-dasharray: none; stroke-linecap: butt; stroke-dashoffset: 0; stroke-linejoin: miter; stroke-miterlimit: 4; fill: rgb(209,211,212); fill-rule: nonzero; opacity: 1;" vector-effect="non-scaling-stroke"  transform=" translate(-256.08, -129.91)" d="M 341 193.72 L 171.16 193.72 C 170.8838576250846 193.72 170.66 193.4961423749154 170.66 193.22 L 170.66 66.59 C 170.66 66.31385762508461 170.8838576250846 66.09 171.16 66.09 L 341 66.09 C 341.2761423749154 66.09 341.5 66.31385762508461 341.5 66.59 L 341.5 193.22 C 341.5 193.4961423749154 341.2761423749154 193.72 341 193.72 Z M 171.67 192.72 L 340.49 192.72 L 340.49 67.09 L 171.66 67.09 Z" stroke-linecap="round" />
</g>
		<g transform="matrix(1 0 0 1 98.59 -34.85)"  >
<path style="stroke: none; stroke-width: 1; stroke-dasharray: none; stroke-linecap: butt; stroke-dashoffset: 0; stroke-linejoin: miter; stroke-miterlimit: 4; fill: rgb(209,211,212); fill-rule: nonzero; opacity: 1;" vector-effect="non-scaling-stroke"  transform=" translate(-298.59, -115.15)" d="M 329.91 150 L 267.26 150 C 267.12829260723095 150.00002743052735 267.0021194278663 149.94703212894908 266.90993365715985 149.85296501598333 C 266.8177478864534 149.75889790301756 266.76731209111034 149.6316799650982 266.77 149.5 C 266.76996515828495 149.38405276639884 266.80868269473893 149.27141993307816 266.88 149.18 C 267.49 146.54000000000002 267.15 107.03 266.77 80.81 C 266.7655684429795 80.60113633951788 266.89404785468616 80.41243220357366 267.09 80.34 C 267.28211758017034 80.25937354652498 267.50431058844794 80.31189189393605 267.64 80.47 L 330.28 149.16 C 330.4088646698684 149.30937671128413 330.4400203221192 149.51967736397697 330.35999999999996 149.7 C 330.28169346851377 149.87949618513295 330.1058066830021 149.99675404214076 329.91 150 Z M 267.84000000000003 149 L 328.77000000000004 149 L 267.77000000000004 82.11 C 268.13 105.71 268.53 142.88 267.84 149 Z" stroke-linecap="round" />
</g>
		<g transform="matrix(1 0 0 1 122.1 -3.71)"  >
<path style="stroke: none; stroke-width: 1; stroke-dasharray: none; stroke-linecap: butt; stroke-dashoffset: 0; stroke-linejoin: miter; stroke-miterlimit: 4; fill: rgb(209,211,212); fill-rule: nonzero; opacity: 1;" vector-effect="non-scaling-stroke"  transform=" translate(-322.09, -146.29)" d="M 316.74 154.58 C 316.47148323095547 154.58021489603584 316.25074058820996 154.36830195900018 316.24 154.10000000000002 C 316.24 153.96000000000004 315.81 140.57000000000002 327.33 138.00000000000003 C 327.6061423749154 137.93924867751863 327.8792486775186 138.11385762508462 327.94 138.39000000000001 C 328.0007513224814 138.6661423749154 327.82614237491543 138.93924867751863 327.55 139.00000000000003 C 316.83 141.38000000000002 317.24 154.00000000000003 317.24 154.08000000000004 C 317.2458489789397 154.35420187931112 317.03379300581 154.5839291835349 316.76 154.60000000000005 Z" stroke-linecap="round" />
</g>
		<g transform="matrix(1 0 0 1 72.4 -4.5)"  >
<path style="stroke: none; stroke-width: 1; stroke-dasharray: none; stroke-linecap: butt; stroke-dashoffset: 0; stroke-linejoin: miter; stroke-miterlimit: 4; fill: rgb(209,211,212); fill-rule: nonzero; opacity: 1;" vector-effect="non-scaling-stroke"  transform=" translate(-272.39, -145.5)" d="M 277.52 150 C 277.24385762508456 150 277.02 149.7761423749154 277.02 149.5 L 277.02 142 L 267.27 142 C 266.9960915474568 141.9946798942243 266.7753201057757 141.77390845254317 266.77 141.5 C 266.77 141.2238576250846 266.99385762508456 141 267.27 141 L 277.52 141 C 277.7961423749154 141 278.02 141.2238576250846 278.02 141.5 L 278.02 149.5 C 278.02 149.7761423749154 277.7961423749154 150 277.52 150 Z" stroke-linecap="round" />
</g>
		<g transform="matrix(1 0 0 1 59.78 -42.47)"  >
<path style="stroke: none; stroke-width: 1; stroke-dasharray: none; stroke-linecap: butt; stroke-dashoffset: 0; stroke-linejoin: miter; stroke-miterlimit: 4; fill: rgb(209,211,212); fill-rule: nonzero; opacity: 1;" vector-effect="non-scaling-stroke"  transform=" translate(-259.78, -107.53)" d="M 258.7 110.16 L 258.7 109.49 C 258.69762903411123 109.23871219102558 258.71770882239366 108.98771483749479 258.76 108.74 C 258.79929930666 108.51905894131681 258.86650380942757 108.30400453246054 258.96 108.1 C 259.04816773700827 107.89084134193959 259.1660485155231 107.69549605182934 259.31 107.52 C 259.47912004965883 107.31054810788444 259.6629166865685 107.11338444283591 259.86 106.92999999999999 L 260.65000000000003 106.16999999999999 C 260.86632972446046 105.97419071483318 261.05776567302865 105.7525280375437 261.22 105.50999999999999 C 261.3858379865325 105.23973044279215 261.4692439515368 104.92695807402629 261.46000000000004 104.60999999999999 C 261.46993144696063 104.18562568728952 261.3159255733933 103.77374951379554 261.03000000000003 103.45999999999998 C 260.7077918647691 103.13931176705599 260.263726952776 102.97187745597664 259.81 102.99999999999999 C 259.32164091606967 102.9930192789304 258.8530845548062 103.19279137094196 258.52 103.54999999999998 C 258.3610916307264 103.7201125591791 258.2385897769583 103.92087948618783 258.15999999999997 104.13999999999999 C 258.07904544702296 104.35823428330754 258.0318363723725 104.58753550303858 258.02 104.82 L 255.85999999999999 104.63 C 255.9188842050795 104.10707029031374 256.07130899156937 103.5989876686809 256.31 103.13 C 256.5255843795311 102.70163865337618 256.8248061000148 102.32081100912416 257.19 102.00999999999999 C 257.5619133932606 101.70689516217037 257.9853239695406 101.47317252406381 258.44 101.32 C 258.9265990816914 101.15705167977865 259.4368582788401 101.07595088023184 259.95 101.08 C 260.43503249855775 101.08081435962667 260.91715197131435 101.15498658620461 261.38 101.3 C 261.8133201858284 101.44151243913815 262.2167602088623 101.66187883827432 262.57 101.95 C 262.9182985529323 102.23840347694384 263.19834727325383 102.60041767638386 263.39 103.01 C 263.5967554129643 103.46848744386625 263.6992171634322 103.96713462947693 263.69 104.47 C 263.6947469632969 104.80783702359956 263.65096702306334 105.14460579462727 263.56 105.47 C 263.4805321661381 105.74514269091931 263.36270828946294 106.00772161608116 263.21 106.25 C 263.05055770824566 106.49192041895567 262.86621905410897 106.71647841581311 262.65999999999997 106.92 C 262.43999999999994 107.14 262.2 107.36 261.92999999999995 107.60000000000001 C 261.6599999999999 107.84000000000002 261.50999999999993 107.97000000000001 261.35999999999996 108.12 C 261.2270310251106 108.26021607923386 261.1096768687538 108.41445297044567 261.00999999999993 108.58 C 260.92085110330805 108.73109912481472 260.8598629716492 108.89712237210838 260.8299999999999 109.07 C 260.7864173571971 109.28383936675273 260.76629829039325 109.50179592379408 260.7699999999999 109.72 L 260.7699999999999 110.17999999999999 Z M 258.34999999999997 112.6 C 258.33768665096574 112.22342883709362 258.48687969467954 111.85954336462093 258.76 111.6 C 259.025395919869 111.33672465807759 259.3862475463552 111.1923840074831 259.76 111.19999999999999 C 260.12976211991673 111.19355822355533 260.48782880137816 111.32962356251066 260.76 111.57999999999998 C 261.0448563916107 111.83206917560378 261.1994403405503 112.20012619688856 261.18 112.57999999999998 C 261.19231334903424 112.95657116290636 261.04312030532043 113.32045663537905 260.77 113.57999999999998 C 260.5052532515543 113.84426247879797 260.1439631480455 113.9887785202015 259.77 113.97999999999999 C 259.58451693706445 113.9792086109934 259.4010126213515 113.94182810223707 259.22999999999996 113.86999999999999 C 259.0643740820852 113.8045038789649 258.9119302204132 113.70964992059122 258.78 113.58999999999999 C 258.6473385582695 113.47422300129371 258.54154354749414 113.33088782540453 258.46999999999997 113.16999999999999 C 258.3877296113824 112.9914135022683 258.3467158185203 112.79659798617321 258.35 112.6 Z" stroke-linecap="round" />
</g>
		<g transform="matrix(1 0 0 1 17.18 8.99)"  >
<path style="stroke: none; stroke-width: 1; stroke-dasharray: none; stroke-linecap: butt; stroke-dashoffset: 0; stroke-linejoin: miter; stroke-miterlimit: 4; fill: rgb(255,255,255); fill-rule: nonzero; opacity: 1;" vector-effect="non-scaling-stroke"  transform=" translate(-217.18, -158.99)" d="M 225.89 142.49 C 223.26999999999998 142.82000000000002 213.16 150.23000000000002 210.54 150.72 C 210.54 150.72 206.06 155.21 200.68 159.96 C 203.5268396972677 164.91244963178244 205.90066596310913 170.12214451140062 207.76999999999998 175.51999999999998 C 212.43 170.37 216.54000000000002 165.21 217.77 163.76000000000002 C 218.79778806836651 162.3603174403461 219.90984560441268 161.02451259224262 221.10000000000002 159.76000000000002 C 222.93000000000004 158.03000000000003 225.35000000000002 156.83 227.40000000000003 155.37000000000003 C 229.67682202439443 153.89995788666144 231.57760447838743 151.91697943465795 232.95000000000005 149.58000000000004 C 233.5032512148585 148.65689693807627 233.74841221994078 147.5816908157868 233.65000000000003 146.51000000000005 C 233.19 143.83 228.19 142.19 225.89 142.49 Z" stroke-linecap="round" />
</g>
		<g transform="matrix(1 0 0 1 17.16 8.97)"  >
<path style="stroke: none; stroke-width: 1; stroke-dasharray: none; stroke-linecap: butt; stroke-dashoffset: 0; stroke-linejoin: miter; stroke-miterlimit: 4; fill: rgb(35,31,32); fill-rule: nonzero; opacity: 1;" vector-effect="non-scaling-stroke"  transform=" translate(-217.16, -158.97)" d="M 207.77 176 L 207.68 176 C 207.50555409265166 175.96825668549724 207.36096718879946 175.8464992927796 207.3 175.68 C 205.4415377680196 170.30997606005045 203.08110063313072 165.12705877663487 200.24999999999994 160.19999999999993 C 200.12910887717564 159.9963260332508 200.17120383300622 159.73533730710113 200.35 159.58 C 205.65 154.9 210.14 150.4 210.18 150.36 C 210.25472800469697 150.28842885679668 210.3484456099836 150.23983454294438 210.45000000000002 150.22000000000003 C 211.63000000000002 150.00000000000003 214.69000000000003 148.12000000000003 217.65 146.29000000000002 C 221.1 144.17000000000002 224.37 142.17000000000002 225.82 141.98000000000002 L 225.82 141.98000000000002 C 228.31 141.67000000000002 233.62 143.36 234.1 146.42000000000002 C 234.22477176388293 147.6014629366241 233.96150469557418 148.79143008537972 233.35 149.81 C 231.93857084429263 152.2231399503424 229.98763551273012 154.27675608882922 227.65 155.81 C 226.91 156.33 226.12 156.81 225.36 157.3 C 223.94001490414152 158.1221066573006 222.60074886015457 159.0763337136413 221.36 160.15 C 220.5488958332411 160.96330517871704 219.80324728974682 161.83935862443676 219.13000000000002 162.77 C 218.78000000000003 163.23000000000002 218.44000000000003 163.68 218.13000000000002 164.11 L 217.32000000000002 165.11 C 215.61 167.21 212.05 171.58 208.16000000000003 175.9 C 208.04731154818484 175.98142740808564 207.90796648262565 176.01715691207517 207.77 176 Z M 201.32000000000002 160 C 203.96577142239002 164.64987695506872 206.20090887858908 169.52167356618529 207.99999999999997 174.55999999999995 C 211.65 170.47 214.94 166.43 216.56 164.44 L 217.38 163.44 C 217.73 163.02 218.07 162.57999999999998 218.38 162.13 C 219.08528197536185 161.15829038427222 219.8642451655955 160.2422564180747 220.71 159.39 C 221.98453307137018 158.26091653894136 223.36414979049744 157.25634125802347 224.83 156.39 C 225.58 155.92 226.36 155.39 227.07000000000002 154.92999999999998 C 229.27426776019172 153.4920651089348 231.12118645685393 151.56990157648264 232.47000000000003 149.30999999999997 C 232.97571625309553 148.47953791011744 233.20015557998406 147.50813644842793 233.11 146.53999999999996 C 232.75 144.20999999999995 228.03 142.67999999999995 225.95000000000002 142.93999999999997 L 225.95000000000002 142.93999999999997 C 224.71 143.09999999999997 221.24 145.22999999999996 218.18 147.11999999999998 C 215.12 149.01 212.18 150.77999999999997 210.79000000000002 151.11999999999998 C 210.1 151.87 206.06 155.86 201.32 160.07 Z" stroke-linecap="round" />
</g>
		<g transform="matrix(1 0 0 1 34.16 -15.14)"  >
<polygon style="stroke: none; stroke-width: 1; stroke-dasharray: none; stroke-linecap: butt; stroke-dashoffset: 0; stroke-linejoin: miter; stroke-miterlimit: 4; fill: rgb(35,31,32); fill-rule: nonzero; opacity: 1;" vector-effect="non-scaling-stroke"  points="-19.11,24.25 18.34,-25.37 19.11,-24.96 -17.03,25.37 -19.11,24.25 " />
</g>
		<g transform="matrix(1 0 0 1 34.16 -15.14)"  >
<path style="stroke: none; stroke-width: 1; stroke-dasharray: none; stroke-linecap: butt; stroke-dashoffset: 0; stroke-linejoin: miter; stroke-miterlimit: 4; fill: rgb(35,31,32); fill-rule: nonzero; opacity: 1;" vector-effect="non-scaling-stroke"  transform=" translate(-234.16, -134.86)" d="M 217.13 160.73 C 217.04638705478638 160.7292120916734 216.96414690851861 160.70865205510646 216.89 160.67 L 214.80999999999997 159.54999999999998 C 214.68235603208794 159.47709660997572 214.59153105900052 159.35357464657682 214.55999999999997 159.20999999999998 C 214.528681982691 159.0699167351222 214.5617001671598 158.9231692485942 214.64999999999998 158.80999999999997 L 252.09999999999997 109.18999999999997 C 252.24527771691305 108.99210283351024 252.51458020945952 108.93225783516658 252.72999999999996 109.04999999999997 L 253.50999999999996 109.45999999999997 C 253.6379930359082 109.52766504401924 253.72951076197756 109.6484684424308 253.75999999999996 109.78999999999996 C 253.7901393659554 109.92865664790715 253.7611504331539 110.07360131191467 253.67999999999995 110.18999999999997 L 217.53999999999996 160.51999999999998 C 217.44680786428185 160.65388150655664 217.29310188623046 160.73260895872934 217.13 160.73 Z M 215.79999999999998 158.94 L 216.98 159.57999999999998 L 249.68 114.04999999999998 Z" stroke-linecap="round" />
</g>
		<g transform="matrix(1 0 0 1 21 -2.54)"  >
<path style="stroke: none; stroke-width: 1; stroke-dasharray: none; stroke-linecap: butt; stroke-dashoffset: 0; stroke-linejoin: miter; stroke-miterlimit: 4; fill: rgb(255,255,255); fill-rule: nonzero; opacity: 1;" vector-effect="non-scaling-stroke"  transform=" translate(-221, -147.46)" d="M 209.7 151.5 C 212.47 148.5 215.35999999999999 143.91 216.7 142.13 C 216.96495219196973 141.73466081343764 217.30466081343764 141.39495219196974 217.7 141.13 C 218.18949072322877 140.88206477543395 218.73131993087725 140.75518072047828 219.28 140.76 C 222.61282091415111 140.5452918459172 225.95906906211917 140.82498831749962 229.20999999999998 141.59 C 230.23824359139087 141.7451626834528 231.19252529737827 142.21706023036964 231.94 142.94 C 232.1557003579333 143.1564227748952 232.28389776776507 143.44486694701664 232.3 143.75 C 232.3 144.29 231.79000000000002 144.68 231.3 144.94 C 229.7286872806366 145.6698520296427 228.03058243102663 146.08758582264676 226.3 146.17 C 223.84 146.42 222.98000000000002 145.89 220.51000000000002 145.85999999999999 C 220.82000000000002 145.85999999999999 221.45000000000002 148.42999999999998 220.83 150.07999999999998 C 220.123567863223 151.65640348149992 219.10272094698556 153.07197787201582 217.83 154.23999999999998" stroke-linecap="round" />
</g>
		<g transform="matrix(1 0 0 1 21.02 -2.51)"  >
<path style="stroke: none; stroke-width: 1; stroke-dasharray: none; stroke-linecap: butt; stroke-dashoffset: 0; stroke-linejoin: miter; stroke-miterlimit: 4; fill: rgb(35,31,32); fill-rule: nonzero; opacity: 1;" vector-effect="non-scaling-stroke"  transform=" translate(-221.02, -147.49)" d="M 217.87 154.78 C 217.7399294214832 154.7787516598718 217.61504996384195 154.72879987681532 217.52 154.64000000000001 C 217.42534367458845 154.54611670004724 217.37210083782918 154.4183187681853 217.37210083782918 154.28500000000003 C 217.37210083782918 154.15168123181473 217.42534367458845 154.0238832999528 217.52 153.93 L 217.61 153.84 C 218.7970837423886 152.7485251231288 219.74679045246288 151.42438207574926 220.4 149.95000000000002 C 220.73276452998587 148.75563179420547 220.6873495071354 147.4875046176883 220.27 146.32000000000002 C 220.12463903599357 146.22669175451082 220.0406221537063 146.06247693913116 220.05 145.89000000000001 C 220.06054818668775 145.62000356095103 220.2798455780816 145.40509211738507 220.55 145.4 C 221.40698051430488 145.4144894655521 222.2621145654957 145.48463718068885 223.11 145.61 C 224.16074553314047 145.78552210572636 225.2303023262033 145.81915596714344 226.29000000000002 145.71 C 227.95475404232337 145.63279539612452 229.58852117938648 145.2319959737265 231.10000000000002 144.53 C 231.32000000000002 144.42 231.82000000000002 144.12 231.82000000000002 143.78 C 231.79393312119214 143.59828104080066 231.70973504007475 143.42988487856593 231.58 143.3 C 230.89513003261894 142.66565570834663 230.03381594041608 142.25417772097845 229.11 142.12 C 225.91178283725705 141.36493100917397 222.61975668353605 141.0852604147432 219.33999999999997 141.29 C 218.87003313042632 141.28794959294783 218.40549008638237 141.39042232325164 217.98 141.59 C 217.65504165141718 141.82178423766163 217.37398254132643 142.10961585642926 217.14999999999998 142.44 C 216.73 142.98 216.14999999999998 143.81 215.48999999999998 144.77 C 213.83956077920175 147.23723101005638 212.03602127584543 149.59853180426543 210.08999999999997 151.84 C 209.9022231850575 152.0443453574374 209.58434535743737 152.05777681494249 209.37999999999997 151.87 C 209.17565464256256 151.68222318505752 209.16222318505748 151.3643453574374 209.34999999999997 151.16 C 211.27127502858704 148.94289375171104 213.04826133029658 146.60475388104055 214.66999999999996 144.16 C 215.33999999999995 143.16 215.91999999999996 142.35999999999999 216.35999999999996 141.79999999999998 C 216.97066794806318 140.78923844377525 218.09115718337196 140.20011523758197 219.26999999999995 140.26999999999998 C 222.65025451176797 140.0514631363821 226.04420470620653 140.33794354008347 229.33999999999995 141.11999999999998 C 230.47365723559082 141.28955499686256 231.52416166115535 141.8148072096448 232.33999999999995 142.61999999999998 C 232.63422571040456 142.9283841031469 232.80502651443174 143.33403601271138 232.81999999999994 143.75999999999996 C 232.81999999999994 144.19999999999996 232.59999999999994 144.83999999999997 231.56999999999994 145.38999999999996 C 229.94081722203177 146.14475539685418 228.18287329799986 146.58254452079262 226.38999999999993 146.67999999999995 C 225.25343668311825 146.79329597427287 224.10689857983516 146.75631087416696 222.97999999999993 146.56999999999994 C 222.48999999999992 146.49999999999994 221.97999999999993 146.43999999999994 221.36999999999992 146.39999999999995 C 221.73367831705136 147.66436784529193 221.73367831705136 149.00563215470797 221.36999999999992 150.26999999999995 C 220.6728443650357 151.8720436236835 219.6513840018337 153.31230273579834 218.36999999999992 154.49999999999994 L 218.27999999999992 154.58999999999995 C 218.17943241831009 154.71250916609105 218.02848114035285 154.78246219733956 217.87 154.78 Z" stroke-linecap="round" />
</g>
		<g transform="matrix(1 0 0 1 -16.74 24.67)"  >
<path style="stroke: none; stroke-width: 1; stroke-dasharray: none; stroke-linecap: butt; stroke-dashoffset: 0; stroke-linejoin: miter; stroke-miterlimit: 4; fill: rgb(244,206,20); fill-rule: nonzero; opacity: 1;" vector-effect="non-scaling-stroke"  transform=" translate(-183.25, -174.67)" d="M 157.11 132 C 157.11 132 171.33 180.15 175.71 177.85 C 180.09 175.54999999999998 205.87 153 205.87 153 L 217.16 168 C 217.16 168 182.70999999999998 222.75 171.74 216.9 C 160.77000000000004 211.05 149.35000000000002 180.11 149.35000000000002 180.11 Z" stroke-linecap="round" />
</g>
		<g transform="matrix(1 0 0 1 -82.15 31.37)"  >
<path style="stroke: none; stroke-width: 1; stroke-dasharray: none; stroke-linecap: butt; stroke-dashoffset: 0; stroke-linejoin: miter; stroke-miterlimit: 4; fill: rgb(244,206,20); fill-rule: nonzero; opacity: 1;" vector-effect="non-scaling-stroke"  transform=" translate(-117.84, -181.37)" d="M 86.15 173.32 L 69.64 169.14 C 70.27 168 80.3 137.87 89.49 132 C 97.39 125.43 113.25 124.79 131.2 124.09 C 136.94883897488498 123.75506811540792 142.71475021229986 124.31850122052688 148.29000000000002 125.76000000000002 C 169.23 131.55 160.16 174.26 160.16 174.26 C 160.16 174.26 162.45 194.70999999999998 166.04999999999998 235.12 C 166.04999999999998 235.12 136.58999999999997 240.8 85.21999999999998 237.93 C 85.22 238 86.64 178.64 86.15 173.32 Z" stroke-linecap="round" />
</g>
		<g transform="matrix(1 0 0 1 -67.46 18.73)"  >
<polygon style="stroke: none; stroke-width: 1; stroke-dasharray: none; stroke-linecap: butt; stroke-dashoffset: 0; stroke-linejoin: miter; stroke-miterlimit: 4; fill: rgb(255,255,255); fill-rule: nonzero; opacity: 1;" vector-effect="non-scaling-stroke"  points="8.02,17.77 2.78,28.01 -8.02,19.41 -5.5,-20.06 -8.02,-23.2 -4.85,-28.02 -0.47,-23.53 -3.37,-20.2 8.02,17.77 " />
</g>
		<g transform="matrix(1 0 0 1 -78.58 -39.06)"  >
<path style="stroke: none; stroke-width: 1; stroke-dasharray: none; stroke-linecap: butt; stroke-dashoffset: 0; stroke-linejoin: miter; stroke-miterlimit: 4; fill: rgb(255,255,255); fill-rule: nonzero; opacity: 1;" vector-effect="non-scaling-stroke"  transform=" translate(-121.42, -110.94)" d="M 133.25 120.77 L 135.93 134.21 C 135.93 134.21 131.71 143.14000000000001 122.73 141.65 C 113.75 140.16 112 133.44 112 133.44 L 108.31 107.72 C 108.31 107.72 100.64 98.06 104.5 87.63 C 108.36 77.19999999999999 132.65 76.77 134.81 91.17999999999999 C 134.81 91.17999999999999 139.94 106.30999999999999 139.38 113.17999999999999 C 138.82 120.05 133.25 120.77 133.25 120.77 Z" stroke-linecap="round" />
</g>
		<g transform="matrix(1 0 0 1 -78.5 -39.07)"  >
<path style="stroke: none; stroke-width: 1; stroke-dasharray: none; stroke-linecap: butt; stroke-dashoffset: 0; stroke-linejoin: miter; stroke-miterlimit: 4; fill: rgb(35,31,32); fill-rule: nonzero; opacity: 1;" vector-effect="non-scaling-stroke"  transform=" translate(-121.5, -110.93)" d="M 124.7 142.32 C 124.02955472463515 142.31434438550556 123.36068116183256 142.25414576485332 122.7 142.14 C 113.5 140.61999999999998 111.64 133.85999999999999 111.56 133.57 L 107.88 107.91999999999999 C 107.03999999999999 106.78999999999999 100.39 97.41999999999999 104.08 87.45999999999998 C 105.78 82.87999999999998 112.27 78.72999999999998 121.41 79.67999999999998 C 127.41 80.29999999999998 134.23 83.61999999999998 135.41 91.10999999999999 C 135.6 91.64999999999999 140.54 106.32999999999998 139.98 113.26999999999998 C 139.48999999999998 119.20999999999998 135.42 120.77999999999999 133.98 121.15999999999998 L 136.56 134.15999999999997 C 136.59428646301333 134.26048923281888 136.59428646301333 134.36951076718105 136.56 134.46999999999997 C 136.35 134.51 132.56 142.32 124.7 142.32 Z M 119.08 80.56 C 113.2 80.56 106.78 82.9 104.97 87.8 C 101.25 97.8 108.62 107.31 108.7 107.41 C 108.7535081570297 107.48001706036133 108.78796108546256 107.56270408860021 108.8 107.64999999999999 L 112.49 133.37 C 112.55 133.58 114.27 139.74 122.81 141.16 C 130.81 142.48 134.81 135.29999999999998 135.41 134.16 L 132.76 120.87 C 132.72890669201493 120.73307736416632 132.76205115240091 120.58945136916043 132.85 120.48 C 132.93113550309036 120.36955568654425 133.05404710370428 120.29725474500665 133.19 120.28 C 133.4 120.28 138.35999999999999 119.6 138.88 113.2 C 139.43 106.46000000000001 134.39 91.51 134.34 91.36 C 133.44 85.36 128.55 81.43 121.26 80.68 C 120.55 80.6 119.82 80.56 119.08 80.56 Z" stroke-linecap="round" />
</g>
		<g transform="matrix(1 0 0 1 -79.74 -41.5)"  >
<path style="stroke: none; stroke-width: 1; stroke-dasharray: none; stroke-linecap: butt; stroke-dashoffset: 0; stroke-linejoin: miter; stroke-miterlimit: 4; fill: rgb(209,211,212); fill-rule: nonzero; opacity: 1;" vector-effect="non-scaling-stroke"  transform=" translate(-120.26, -108.5)" d="M 139.57 111.13 C 139.57 111.13 138.66 108.42 128.66 110.13 C 118.66 111.83999999999999 119 122.89 113.06 118 C 107.12 113.11 110.3 104.51 109.69 96.51 C 108.89999999999999 86.26 106.69 86.51 104.5 87.62 C 96.75 91.38000000000001 99.22 107.55000000000001 109.76 121.95 C 113.49000000000001 127.05 136.76 136.55 139.85 122.69 C 141.58 115 139.57 111.13 139.57 111.13 Z" stroke-linecap="round" />
</g>
		<g transform="matrix(1 0 0 1 -79.75 -41.46)"  >
<path style="stroke: none; stroke-width: 1; stroke-dasharray: none; stroke-linecap: butt; stroke-dashoffset: 0; stroke-linejoin: miter; stroke-miterlimit: 4; fill: rgb(35,31,32); fill-rule: nonzero; opacity: 1;" vector-effect="non-scaling-stroke"  transform=" translate(-120.25, -108.54)" d="M 129.53 130.41 C 121.53 130.41 111.75 125.52 109.36 122.25999999999999 C 101.9 112.05999999999999 98.11 100.32 99.92 93.03999999999999 C 100.40497809667472 90.52456934612363 102.01001694783548 88.36733822965529 104.28 87.17999999999999 C 105.17299538934833 86.59535534663291 106.29973646002607 86.49770445384084 107.28 86.91999999999999 C 108.83 87.80999999999999 109.71000000000001 90.75999999999999 110.15 96.47999999999999 C 110.28032313848844 98.89648570419068 110.24022385189876 101.31915093565017 110.03 103.72999999999996 C 109.68 109.18999999999998 109.36 114.35 113.35 117.61999999999999 C 114.02289369870677 118.3153881240637 114.9426034904178 118.71776115793728 115.91 118.74 C 117.00999999999999 118.63 117.91 117.47 119.13 116.00999999999999 C 120.97999999999999 113.69999999999999 123.53 110.55 128.54 109.66999999999999 C 138.29999999999998 107.96 139.79999999999998 110.46 139.98999999999998 110.92999999999999 C 140.17999999999998 111.39999999999999 141.98999999999998 115.27 140.30999999999997 122.80999999999999 C 139.6052743054278 126.56591155848585 136.62200071337165 129.4772026778114 132.84999999999997 130.08999999999997 C 131.75692288638467 130.3081269355682 130.64461583070027 130.4153372541884 129.53 130.41 Z M 106.19 87.62 C 105.67242772778052 87.66485735434817 105.1708192692341 87.82182326654636 104.72 88.08 C 102.70840004036008 89.12838691134877 101.29455737725384 91.0479644173938 100.89 93.28 C 99.14 100.28 102.89 111.7 110.16 121.67 C 112.7 125.14 124.72 130.77 132.68 129.11 C 136.07910957802886 128.59953265034696 138.77222964320245 125.9748476241987 139.37 122.59000000000002 C 141.03 115.16000000000003 139.14000000000001 111.39000000000001 139.12 111.36000000000001 C 139.12 111.27000000000001 137.85 109.12000000000002 128.76 110.70000000000002 C 124.11999999999999 111.51000000000002 121.75999999999999 114.38000000000002 119.94999999999999 116.70000000000002 C 118.67999999999999 118.28000000000002 117.57999999999998 119.70000000000002 116.05999999999999 119.80000000000001 C 114.82575353064384 119.82460654403276 113.63582354798737 119.33995421067115 112.76999999999998 118.46000000000001 C 108.37999999999998 114.87 108.76999999999998 109.46000000000001 109.08999999999997 103.74000000000001 C 109.28982062079363 101.37539406710394 109.32991162179681 99.00000225766554 109.20999999999997 96.63000000000002 C 108.80999999999997 91.49000000000001 108.00999999999998 88.54 106.82999999999998 87.86000000000001 C 106.64623594637463 87.71642255924304 106.42285945350314 87.63265637441624 106.19 87.62 Z" stroke-linecap="round" />
</g>
		<g transform="matrix(1 0 0 1 -94.13 -41.78)"  >
<path style="stroke: none; stroke-width: 1; stroke-dasharray: none; stroke-linecap: butt; stroke-dashoffset: 0; stroke-linejoin: miter; stroke-miterlimit: 4; fill: rgb(255,255,255); fill-rule: nonzero; opacity: 1;" vector-effect="non-scaling-stroke"  transform=" translate(-105.87, -108.22)" d="M 111.13 106.7 C 110.45333602656179 104.98215699475493 109.11734447159098 103.60655383033756 107.42 102.88000000000001 C 106.0995765871889 102.20920656469895 104.56581675566375 102.09399455857499 103.16 102.56000000000002 C 100.91 103.38000000000001 100.27 105.56000000000002 100.72999999999999 107.70000000000002 C 100.90506949418598 108.61190015282605 101.2010133450309 109.49636870705577 101.60999999999999 110.33000000000001 C 102.4628985298216 112.00434735146867 103.95314808696259 113.2654869105867 105.74550018592288 113.82971107605164 C 107.53785228488316 114.39393524151657 109.48178907547758 114.21386168903088 111.13999999999999 113.33000000000001" stroke-linecap="round" />
</g>
		<g transform="matrix(1 0 0 1 -94.12 -41.8)"  >
<path style="stroke: none; stroke-width: 1; stroke-dasharray: none; stroke-linecap: butt; stroke-dashoffset: 0; stroke-linejoin: miter; stroke-miterlimit: 4; fill: rgb(35,31,32); fill-rule: nonzero; opacity: 1;" vector-effect="non-scaling-stroke"  transform=" translate(-105.88, -108.2)" d="M 107.83 114.63 C 107.073671013223 114.63113753392068 106.32162559320713 114.51647590037565 105.6 114.28999999999999 C 103.68405274010459 113.68891310956496 102.08861988819305 112.3455802568268 101.16999999999999 110.55999999999999 C 100.73903758832158 109.68528745481557 100.42629701675425 108.75715414564797 100.23999999999998 107.79999999999998 C 99.66999999999999 105.10999999999999 100.71999999999998 102.91999999999999 102.98999999999998 102.08999999999999 C 104.52245623527766 101.57184620782856 106.19921259375715 101.69444774801845 107.63999999999999 102.42999999999999 C 109.47619953973195 103.19987565556436 110.9202089880074 104.68359536366738 111.63999999999999 106.53999999999999 C 111.68387672773788 106.66591120870872 111.67454704877476 106.80426581478181 111.61416325239078 106.92314641391278 C 111.5537794560068 107.04202701304374 111.44755677081947 107.13116612389184 111.32 107.16999999999999 C 111.19408879129126 107.21387672773788 111.05573418521817 107.20454704877476 110.93685358608721 107.14416325239078 C 110.81797298695625 107.0837794560068 110.72883387610814 106.97755677081948 110.69 106.85 C 110.05554229754776 105.26688025847419 108.81811817221144 104.0006788278975 107.25 103.33 C 106.04837097180018 102.71676972985547 104.65161284029013 102.60877296710986 103.37 103.03 C 101.58 103.68 100.79 105.39 101.26 107.59 C 101.42351095360253 108.4631365533103 101.70263370420541 109.31059357923708 102.09 110.11 C 102.892335387462 111.65476033464022 104.2790644322567 112.81455094478447 105.94135839960703 113.33108296853739 C 107.60365236695735 113.84761499229032 109.40347486399926 113.67799576520265 110.94 112.86 C 111.1857667136747 112.73021308378976 111.49021308378975 112.8242332863253 111.61999999999999 113.07 C 111.74978691621024 113.3157667136747 111.6557667136747 113.62021308378976 111.41 113.75 C 110.30726943465413 114.33347722600529 109.07756855913625 114.63575006691471 107.83 114.63 Z" stroke-linecap="round" />
</g>
		<g transform="matrix(1 0 0 1 -65.45 -51.26)"  >
<path style="stroke: none; stroke-width: 1; stroke-dasharray: none; stroke-linecap: butt; stroke-dashoffset: 0; stroke-linejoin: miter; stroke-miterlimit: 4; fill: rgb(35,31,32); fill-rule: nonzero; opacity: 1;" vector-effect="non-scaling-stroke"  transform=" translate(-134.55, -98.74)" d="M 134.56 107.18 C 134.3 107.18 134.05 107.18 133.8 107.18 C 129.1460929719304 106.76224049719988 125.70960388343394 102.65456213360646 126.12 98 L 126.12 98 C 126.52014342677619 93.44297791492832 130.4702370333549 90.02946973236944 135.03712772506515 90.29418553430266 C 139.60401841677543 90.55890133623589 143.13326065857572 94.4059426424637 143.00420571795513 98.97867813318744 C 142.8751507773345 103.5514136239112 139.13455133236175 107.19328037125383 134.56 107.2 Z M 127.11 98.06 C 126.75160339063186 102.16155531846309 129.77949183976529 105.77981492754573 133.88 106.15 C 136.88556245397322 106.41728342691023 139.75616472932697 104.84765967012335 141.15314801080842 102.17309731222332 C 142.55013129228988 99.49853495432329 142.19835776683038 96.2457927960941 140.26187131291215 93.93173438956549 C 138.3253848589939 91.6176759830369 135.18557919480315 90.69805837106365 132.30665176999582 91.60173031249305 C 129.4277243451885 92.50540225392244 127.37668394658772 95.05438429474643 127.11 98.06 Z" stroke-linecap="round" />
</g>
		<g transform="matrix(1 0 0 1 -82.17 -50.49)"  >
<path style="stroke: none; stroke-width: 1; stroke-dasharray: none; stroke-linecap: butt; stroke-dashoffset: 0; stroke-linejoin: miter; stroke-miterlimit: 4; fill: rgb(35,31,32); fill-rule: nonzero; opacity: 1;" vector-effect="non-scaling-stroke"  transform=" translate(-117.83, -99.51)" d="M 117.88 107.94 L 117.11999999999999 107.94 C 114.88472857511003 107.74444125463941 112.81901748312687 106.66787835565427 111.37832608855123 104.94767782332895 C 109.93763469397561 103.22747729100362 109.24027330376906 101.0049028642492 109.44 98.77 L 109.94 98.77 L 109.44 98.77 C 109.85786039819764 94.12034741721837 113.95917095213896 90.68544392166011 118.61 91.09 C 123.08546654308601 91.52428749358334 126.4392773006331 95.38368231062402 126.24500175499591 99.87597163987839 C 126.05072620935873 104.36826096913273 122.37624992591213 107.92370735371338 117.88 107.97 Z M 117.88 92.03 C 113.84984920714737 91.97343134586667 110.50551759657009 95.13230723699994 110.33232082918623 99.15913207867467 C 110.15912406180237 103.18595692034943 113.21987549066684 106.62032025403931 117.24 106.91 C 120.24588670426778 107.18326768879048 123.1196367627386 105.61588248897708 124.51743870052513 102.94077878045456 C 125.91524063831167 100.26567507193207 125.56085572017804 97.01151664110012 123.61999999999999 94.69999999999999 C 122.35490679421495 93.17792110144495 120.53213734952394 92.22691095638878 118.55999999999999 92.05999999999999 C 118.3 92 118.08 92 117.85 92 Z" stroke-linecap="round" />
</g>
		<g transform="matrix(1 0 0 1 -40.12 21.22)"  >
<path style="stroke: none; stroke-width: 1; stroke-dasharray: none; stroke-linecap: butt; stroke-dashoffset: 0; stroke-linejoin: miter; stroke-miterlimit: 4; fill: rgb(35,31,32); fill-rule: nonzero; opacity: 1;" vector-effect="non-scaling-stroke"  transform=" translate(-159.88, -171.22)" d="M 162.64 202.22 C 162.38426176089766 202.2208534182133 162.1708752832313 202.02488624484624 162.14999999999998 201.77 L 156.61999999999998 140.77 C 156.59514718625758 140.49385762508462 156.79885762508457 140.2498528137424 157.07499999999996 140.22500000000002 C 157.35114237491538 140.20014718625762 157.59514718625758 140.4038576250846 157.61999999999998 140.68 L 163.14999999999998 201.68 C 163.173182915828 201.9528579558855 162.9725654004465 202.1935989743433 162.7 202.22 Z" stroke-linecap="round" />
</g>
		<g transform="matrix(1 0 0 1 -72.22 -44.75)"  >
<path style="stroke: none; stroke-width: 1; stroke-dasharray: none; stroke-linecap: butt; stroke-dashoffset: 0; stroke-linejoin: miter; stroke-miterlimit: 4; fill: rgb(35,31,32); fill-rule: nonzero; opacity: 1;" vector-effect="non-scaling-stroke"  transform=" translate(-127.78, -105.25)" d="M 126.89 109.72 C 126.45205263860665 109.72204796945925 126.0144437441948 109.69532376216692 125.58 109.64 C 125.30943450894979 109.59396172915764 125.12382235918285 109.34205952590251 125.16 109.07000000000001 C 125.17972842086803 108.93863970201907 125.25091680510957 108.82052874599364 125.35785518893317 108.74173204212362 C 125.46479357275679 108.66293533825359 125.59869143991187 108.62993010903939 125.72999999999999 108.65 C 126.46999999999998 108.76 128.73 108.86 129.36999999999998 107.99000000000001 C 129.76999999999998 107.45 128.15999999999997 104.46000000000001 125.92999999999998 101.59 C 125.76209995880994 101.37169950883525 125.80233910512698 101.0587283708138 126.01999999999998 100.89 C 126.23568496460314 100.71982155945912 126.54827303879631 100.75554591079548 126.71999999999998 100.97 C 128.11999999999998 102.77 131.24999999999997 107.12 130.17999999999998 108.58 C 129.48 109.53 128 109.72 126.89 109.72 Z" stroke-linecap="round" />
</g>
		<g transform="matrix(1 -0.02 0.02 1 -80.23 -49.29)"  >
<ellipse style="stroke: none; stroke-width: 1; stroke-dasharray: none; stroke-linecap: butt; stroke-dashoffset: 0; stroke-linejoin: miter; stroke-miterlimit: 4; fill: rgb(35,31,32); fill-rule: nonzero; opacity: 1;" vector-effect="non-scaling-stroke"  cx="0" cy="0" rx="1.15" ry="1.61" />
</g>
		<g transform="matrix(0.95 -0.32 0.32 0.95 -69.43 -50.42)"  >
<ellipse style="stroke: none; stroke-width: 1; stroke-dasharray: none; stroke-linecap: butt; stroke-dashoffset: 0; stroke-linejoin: miter; stroke-miterlimit: 4; fill: rgb(35,31,32); fill-rule: nonzero; opacity: 1;" vector-effect="non-scaling-stroke"  cx="0" cy="0" rx="1.15" ry="1.61" />
</g>
		<g transform="matrix(1 0 0 1 -69.68 -31.73)"  >
<path style="stroke: none; stroke-width: 1; stroke-dasharray: none; stroke-linecap: butt; stroke-dashoffset: 0; stroke-linejoin: miter; stroke-miterlimit: 4; fill: rgb(35,31,32); fill-rule: nonzero; opacity: 1;" vector-effect="non-scaling-stroke"  transform=" translate(-130.32, -118.27)" d="M 129.92 120.29 C 127.61833957714057 120.24505651782057 125.39621391141769 119.43988756615832 123.6 118 C 123.39289321881344 117.81498460880668 123.37498460880668 117.49710678118655 123.55999999999999 117.29 C 123.7450153911933 117.08289321881345 124.06289321881344 117.06498460880668 124.27 117.25 C 124.50999999999999 117.47 130.15 122.4 136.35999999999999 116.4 C 136.45216358708004 116.30593593282887 136.5783103059604 116.25292856398966 136.70999999999998 116.25292856398966 C 136.84168969403956 116.25292856398966 136.96783641291992 116.30593593282887 137.05999999999997 116.4 C 137.1546563254115 116.49388329995278 137.2078991621708 116.62168123181472 137.2078991621708 116.755 C 137.2078991621708 116.88831876818529 137.1546563254115 117.01611670004722 137.05999999999997 117.11 C 135.20057788196132 119.08154393453167 132.62932322181243 120.22672458148874 129.92 120.29 Z" stroke-linecap="round" />
</g>
		<g transform="matrix(1 0 0 1 -50.09 61.68)"  >
<path style="stroke: none; stroke-width: 1; stroke-dasharray: none; stroke-linecap: butt; stroke-dashoffset: 0; stroke-linejoin: miter; stroke-miterlimit: 4; fill: rgb(255,255,255); fill-rule: nonzero; opacity: 1;" vector-effect="non-scaling-stroke"  transform=" translate(-149.91, -211.68)" d="M 136.07 204.43 C 136.07 204.43 150.87 202.59 154.79999999999998 203.43 C 160.9191993589573 205.0349290809229 166.3323613036617 208.6261170897229 170.19 213.64000000000001 C 170.96251224568027 214.5626132968282 171.49497257828622 215.66188624156302 171.74 216.84 C 171.95147851433532 218.04929979871304 171.40481858733673 219.26542007109393 170.36 219.91 C 169.03 220.56 167.5 219.78 166.11 219.32 C 162.95000000000002 218.26999999999998 159.52 218.89 156.22000000000003 219.32 C 154.92812290267884 219.53311713772408 153.61497047484184 219.58685227543606 152.31000000000003 219.48 C 149.31000000000003 219.13 146.78000000000003 217.35 144.03000000000003 216.19 C 139.03000000000003 214.09 133.26000000000002 214.25 128.03000000000003 215.07999999999998" stroke-linecap="round" />
</g>
		<g transform="matrix(1 0 0 1 -50.1 61.71)"  >
<path style="stroke: none; stroke-width: 1; stroke-dasharray: none; stroke-linecap: butt; stroke-dashoffset: 0; stroke-linejoin: miter; stroke-miterlimit: 4; fill: rgb(35,31,32); fill-rule: nonzero; opacity: 1;" vector-effect="non-scaling-stroke"  transform=" translate(-149.9, -211.71)" d="M 169.24 220.7 C 168.34469663013928 220.64060233942877 167.4657648259568 220.43101090920064 166.64000000000001 220.07999999999998 L 165.95000000000002 219.82999999999998 C 163.21 218.92 160.18 219.32999999999998 157.25000000000003 219.71999999999997 L 156.25000000000003 219.84999999999997 C 154.92794349941593 220.06465437438675 153.58441990871256 220.11503650903813 152.25000000000003 219.99999999999997 C 150.13873255625984 219.63771012483733 148.1077336164559 218.9065505065079 146.25000000000003 217.83999999999997 C 145.45000000000002 217.43999999999997 144.63000000000002 217.01999999999998 143.81000000000003 216.67999999999998 C 139.67000000000004 214.93999999999997 134.53000000000003 214.57999999999998 128.07000000000002 215.60999999999999 C 127.79794047409752 215.64617764081711 127.5460382708424 215.4605654910502 127.50000000000003 215.19 C 127.47993010903942 215.05869143991188 127.51293533825361 214.92479357275678 127.59173204212364 214.81785518893318 C 127.67052874599366 214.71091680510958 127.7886397020191 214.63972842086804 127.92000000000003 214.62 C 134.56000000000003 213.57 139.92000000000002 213.94 144.20000000000005 215.76 C 145.05000000000004 216.12 145.89000000000004 216.54 146.70000000000005 216.94 C 148.44355545958166 217.95648445633626 150.352845546551 218.65723454144737 152.34000000000003 219.01 C 153.60136736345208 219.1159448235206 154.87099405066087 219.06556281212343 156.12000000000003 218.85999999999999 L 157.12000000000003 218.73 C 160.12000000000003 218.32 163.31000000000003 217.89999999999998 166.27000000000004 218.88 L 166.99000000000004 219.14 C 168.14000000000004 219.54999999999998 169.23000000000005 219.95 170.15000000000003 219.5 C 171.00884326671925 218.95884884104342 171.44914886898664 217.9473359709697 171.26000000000005 216.95 C 171.02470535512103 215.8441421733097 170.5197316905999 214.81358367428706 169.79000000000005 213.95 C 166.01180033504434 209.03155552354505 160.70196712753284 205.5127793754261 154.70000000000005 203.95 C 150.91000000000005 203.1 136.28000000000003 204.89999999999998 136.14000000000004 204.95 C 136.00672529529652 204.96980960293018 135.87117423440688 204.93386530662482 135.76522657773822 204.8506207192423 C 135.65927892106959 204.76737613185978 135.59228468501666 204.64417769485314 135.58000000000004 204.51 C 135.54453362301436 204.23673516641668 135.7368427952422 203.98628601188736 136.01000000000005 203.95 C 136.62000000000006 203.88 150.95000000000005 202.10999999999999 154.92000000000004 202.95 C 161.15411955135465 204.5846677438821 166.6692026810475 208.24263104418858 170.60000000000005 213.35 C 171.42340123605476 214.34043903306673 171.99010132402083 215.51848830683863 172.25000000000006 216.78 C 172.5117961266141 218.2073344217254 171.84704039060952 219.64496881465092 170.59000000000006 220.37 C 170.1711411574832 220.58174742100567 169.7093090321285 220.69463971831456 169.24 220.7 Z" stroke-linecap="round" />
</g>
		<g transform="matrix(1 0 0 1 -102 45.82)"  >
<path style="stroke: none; stroke-width: 1; stroke-dasharray: none; stroke-linecap: butt; stroke-dashoffset: 0; stroke-linejoin: miter; stroke-miterlimit: 4; fill: rgb(244,206,20); fill-rule: nonzero; opacity: 1;" vector-effect="non-scaling-stroke"  transform=" translate(-98, -195.82)" d="M 69.64 169.14 C 69.64 169.14 53.42 217.41 61.370000000000005 222.89 C 69.32000000000001 228.36999999999998 132.82999999999998 225.69 132.82999999999998 225.69 L 136.82999999999998 202.92 C 136.82999999999998 202.92 93.08999999999997 208.54 94.17999999999998 205.29999999999998 C 95.26999999999998 202.05999999999997 100.57999999999998 165.29999999999998 100.57999999999998 165.29999999999998 Z" stroke-linecap="round" />
</g>
		<g transform="matrix(1 0 0 1 2.9 73.74)"  >
<rect style="stroke: none; stroke-width: 1; stroke-dasharray: none; stroke-linecap: butt; stroke-dashoffset: 0; stroke-linejoin: miter; stroke-miterlimit: 4; fill: rgb(35,31,32); fill-rule: nonzero; opacity: 1;" vector-effect="non-scaling-stroke"  x="-53.18" y="-1.995" rx="1.95" ry="1.95" width="106.36" height="3.99" />
</g>
		<g transform="matrix(1 0 0 1 2.9 73.73)"  >
<path style="stroke: none; stroke-width: 1; stroke-dasharray: none; stroke-linecap: butt; stroke-dashoffset: 0; stroke-linejoin: miter; stroke-miterlimit: 4; fill: rgb(35,31,32); fill-rule: nonzero; opacity: 1;" vector-effect="non-scaling-stroke"  transform=" translate(-202.89, -223.73)" d="M 254.12 226.23 L 151.67 226.23 C 150.289288125423 226.23 149.17 225.11071187457696 149.17 223.73 C 149.17 222.34928812542302 150.289288125423 221.23 151.67 221.23 L 254.12 221.23 C 255.50071187457698 221.23 256.62 222.34928812542302 256.62 223.73 C 256.62 225.11071187457696 255.50071187457698 226.23 254.12 226.23 Z M 151.67000000000002 222.23 C 150.86918711274538 222.23 150.22000000000003 222.87918711274534 150.22000000000003 223.67999999999998 C 150.2037619008562 224.07670821321454 150.34868826782412 224.46311483843414 150.6218029205301 224.75129788577215 C 150.89491757323603 225.03948093311016 151.27299196451617 225.2049302803868 151.67000000000002 225.20999999999998 L 254.12 225.20999999999998 C 254.92244658077047 225.21001882285438 255.57450379076192 224.56242775813683 255.58 223.76 C 255.59347558250494 223.3623370732856 255.44626356167205 222.9759979448878 255.171574099995 222.68813844052764 C 254.896884638318 222.40027893616744 254.5178578716171 222.23514865023193 254.12 222.23 Z" stroke-linecap="round" />
</g>
		<g transform="matrix(1 0 0 1 35.41 47.87)"  >
<polygon style="stroke: none; stroke-width: 1; stroke-dasharray: none; stroke-linecap: butt; stroke-dashoffset: 0; stroke-linejoin: miter; stroke-miterlimit: 4; fill: rgb(35,31,32); fill-rule: nonzero; opacity: 1;" vector-effect="non-scaling-stroke"  points="-18.8,-25.81 43.88,-25.81 18.8,25.81 -43.88,25.81 -18.8,-25.81 " />
</g>
		<g transform="matrix(1 0 0 1 35.43 47.87)"  >
<path style="stroke: none; stroke-width: 1; stroke-dasharray: none; stroke-linecap: butt; stroke-dashoffset: 0; stroke-linejoin: miter; stroke-miterlimit: 4; fill: rgb(35,31,32); fill-rule: nonzero; opacity: 1;" vector-effect="non-scaling-stroke"  transform=" translate(-235.43, -197.88)" d="M 254.21 224.19 L 191.53 224.19 C 191.36000395737474 224.18971680204746 191.20179775450785 224.10308007190608 191.11 223.96 C 191.03000000000003 223.81 191.03000000000003 223.63000000000002 191.11 223.48000000000002 L 216.19 171.84000000000003 C 216.27591866881994 171.6699339765645 216.44947260695508 171.5619448595026 216.64 171.56000000000003 L 279.32 171.56000000000003 C 279.4924830595253 171.5605024500096 279.65199879746353 171.65165430026005 279.74 171.80000000000004 C 279.82 171.95000000000005 279.82 172.13000000000002 279.74 172.28000000000003 L 254.66000000000003 223.91000000000003 C 254.57408133118005 224.08006602343556 254.4005273930449 224.18805514049743 254.21 224.19 Z M 192.33 223.19 L 253.89000000000001 223.19 L 278.49 172.56 L 216.93 172.56 Z" stroke-linecap="round" />
</g>
		<g transform="matrix(1 0 0 1 -86.47 30.37)"  >
<path style="stroke: none; stroke-width: 1; stroke-dasharray: none; stroke-linecap: butt; stroke-dashoffset: 0; stroke-linejoin: miter; stroke-miterlimit: 4; fill: rgb(35,31,32); fill-rule: nonzero; opacity: 1;" vector-effect="non-scaling-stroke"  transform=" translate(-113.53, -180.37)" d="M 136.84 203.42 L 136.84 203.42 L 90.13 200 C 89.98472705931894 199.98706509857993 89.85276680208948 199.91008828186276 89.77 199.79 C 89.68072736445004 199.673344399052 89.65113021348859 199.5216590003746 89.69 199.38 L 100.11 157.69 C 100.14067091257817 157.56200458053115 100.22154510217122 157.45172964287968 100.33440736949224 157.38401228248708 C 100.44726963681327 157.31629492209447 100.58262949454951 157.29682943134833 100.71 157.32999999999998 C 100.83949881827505 157.35810412842906 100.95161812104388 157.43849334213806 101.0197956733537 157.55212259598775 C 101.0879732256635 157.66575184983745 101.10614285998611 157.8025108646142 101.07 157.92999999999998 L 90.8 199 L 136.88 202.38 C 137.1561423749154 202.38 137.38 202.6038576250846 137.38 202.88 C 137.38 203.1561423749154 137.1561423749154 203.38 136.88 203.38 Z" stroke-linecap="round" />
</g>
		<g transform="matrix(1 0 0 1 -75.54 72.47)"  >
<path style="stroke: none; stroke-width: 1; stroke-dasharray: none; stroke-linecap: butt; stroke-dashoffset: 0; stroke-linejoin: miter; stroke-miterlimit: 4; fill: rgb(35,31,32); fill-rule: nonzero; opacity: 1;" vector-effect="non-scaling-stroke"  transform=" translate(-124.46, -222.47)" d="M 115 226.19 C 114.77496750397238 226.18873690473174 114.57850582580414 226.03729769447708 114.52 225.82 C 114.48312438991009 225.69400270719177 114.49835126996814 225.5584776050784 114.562267301309 225.44380472531975 C 114.62618333264987 225.32913184556114 114.73344213441683 225.24490322440025 114.86 225.20999999999998 C 115 225.20999999999998 128.05 221.51 133.71 218.79999999999998 C 133.9586131799328 218.68603283635787 134.2526622372815 218.79295976630283 134.37 219.04 C 134.42819432199713 219.15783777632853 134.43661267581916 219.2941134760916 134.3933641909059 219.41821782410355 C 134.35011570599264 219.54232217211552 134.25882603054586 219.6438511344061 134.14000000000001 219.7 C 128.41000000000003 222.45 115.67000000000002 226.01999999999998 115.14000000000001 226.17 Z" stroke-linecap="round" />
</g>
		<g transform="matrix(1 0 0 1 -19.51 83.8)"  >
<rect style="stroke: none; stroke-width: 1; stroke-dasharray: none; stroke-linecap: butt; stroke-dashoffset: 0; stroke-linejoin: miter; stroke-miterlimit: 4; fill: rgb(255,255,255); fill-rule: nonzero; opacity: 1;" vector-effect="non-scaling-stroke"  x="-132.875" y="-8.11" rx="4.87" ry="4.87" width="265.75" height="16.22" />
</g>
		<g transform="matrix(1 0 0 1 -19.53 83.78)"  >
<path style="stroke: none; stroke-width: 1; stroke-dasharray: none; stroke-linecap: butt; stroke-dashoffset: 0; stroke-linejoin: miter; stroke-miterlimit: 4; fill: rgb(35,31,32); fill-rule: nonzero; opacity: 1;" vector-effect="non-scaling-stroke"  transform=" translate(-180.47, -233.78)" d="M 308.49 242.41 L 52.49000000000001 242.41 C 51.05709738352631 242.41270812388814 49.68254076269188 241.84263105752416 48.67214480158824 240.82660091819875 C 47.66174884048459 239.81057077887334 47.09932403175469 238.43286540398398 47.11 237 L 47.11 230.51 C 47.11 229.08843961446004 47.67471266435864 227.72510264132157 48.6799076528401 226.71990765284008 C 49.68510264132156 225.71471266435861 51.048439614460044 225.14999999999998 52.47 225.14999999999998 L 308.47 225.14999999999998 C 309.89156038554 225.14999999999998 311.2548973586785 225.71471266435861 312.2600923471599 226.71990765284008 C 313.2652873356414 227.72510264132154 313.83000000000004 229.08843961446004 313.83000000000004 230.51 L 313.83000000000004 237 C 313.8406438978025 238.42594585169013 313.2836947054291 239.79757230343114 312.2819577027901 240.81244068999985 C 311.2802207001511 241.82730907656855 309.91596354523386 242.40207332498534 308.49 242.41 Z M 52.49000000000001 226.19 C 51.33365610429959 226.19 50.22467304406009 226.64935582399323 49.40701443402666 227.46701443402665 C 48.58935582399322 228.2846730440601 48.13000000000001 229.3936561042996 48.13000000000001 230.55 L 48.13000000000001 237 C 48.129993691154986 239.40958450132493 50.080421807511826 241.36448607666426 52.49000000000001 241.37 L 308.49 241.37 C 310.8995781924882 241.36448607666426 312.850006308845 239.40958450132496 312.85 237 L 312.85 230.51 C 312.84450128090697 228.10431981600001 310.895680184 226.15549871909306 308.49 226.14999999999998 Z" stroke-linecap="round" />
</g>
		<g transform="matrix(1 0 0 1 113.35 -40.66)"  >
<path style="stroke: none; stroke-width: 1; stroke-dasharray: none; stroke-linecap: butt; stroke-dashoffset: 0; stroke-linejoin: miter; stroke-miterlimit: 4; fill: rgb(209,211,212); fill-rule: nonzero; opacity: 1;" vector-effect="non-scaling-stroke"  transform=" translate(-313.35, -109.34)" d="M 315.41 107.73 C 315.2459801358452 107.50996506034444 315.02936433735016 107.33460941394371 314.78000000000003 107.22 C 314.51181263567827 107.09009759337042 314.21798654176513 107.02176594362318 313.92 107.02 C 313.6180644431284 107.01505479515428 313.3194650137219 107.08369834214427 313.05 107.22 C 312.80658248522786 107.35285657254543 312.5950146543599 107.53712532846268 312.43 107.76 C 312.2617881639097 107.98155268338266 312.13631504505196 108.23249892109821 312.06 108.5 C 311.98040405071066 108.77290039756343 311.94 109.0557287525381 311.94 109.34 C 311.9384050172488 109.62185828599235 311.98230256938797 109.90212727272718 312.07 110.17 C 312.1475064343558 110.44201320861077 312.27650715984726 110.69661990365967 312.45 110.92 C 312.81407916413264 111.3938021556143 313.3826604551593 111.6650860395682 313.97999999999996 111.65 C 314.270924442276 111.65114380325237 314.5594023134106 111.59684208633293 314.83 111.49000000000001 C 315.09186656168663 111.39209384846617 315.3230662735241 111.22645823401545 315.5 111.01 L 316.63 112.15 C 316.31113791666877 112.48481388518486 315.91684266133257 112.73853431035771 315.48 112.89 C 314.9976928743957 113.0725986339997 314.4856987733945 113.16414724808601 313.97 113.16 C 313.45540278192686 113.16149326698023 312.9444630198722 113.07351688410989 312.46000000000004 112.89999999999999 C 311.995438811342 112.74023106532293 311.56958961937767 112.48472155014434 311.21000000000004 112.14999999999999 C 310.8466206852932 111.81536002578989 310.5600486667072 111.40597142780989 310.37000000000006 110.94999999999999 C 310.1566072500698 110.44049530631666 310.05105694569187 109.89231469325719 310.06000000000006 109.33999999999999 C 310.0495967684253 108.79726319931395 310.1552899337702 108.25856900174969 310.37000000000006 107.75999999999999 C 310.5599008154904 107.30354759837044 310.8425363763377 106.89151262412311 311.20000000000005 106.55 C 311.5558708530659 106.21803410679352 311.9738940718435 105.95974333746754 312.43000000000006 105.78999999999999 C 312.9054038140004 105.60758516500496 313.4108163778202 105.51600033800406 313.9200000000001 105.52 C 314.45119879270175 105.51889493501314 314.97757492570327 105.6207741865618 315.4700000000001 105.82 C 315.92510343901534 105.99152427839043 316.33054617414183 106.2732726197495 316.6500000000001 106.63999999999999 Z" stroke-linecap="round" />
</g>
		<g transform="matrix(1 0 0 1 12.73 -42.44)"  >
<path style="stroke: none; stroke-width: 1; stroke-dasharray: none; stroke-linecap: butt; stroke-dashoffset: 0; stroke-linejoin: miter; stroke-miterlimit: 4; fill: rgb(209,211,212); fill-rule: nonzero; opacity: 1;" vector-effect="non-scaling-stroke"  transform=" translate(-212.73, -107.56)" d="M 213.31 109.71 L 209.92000000000002 109.71 L 209.92000000000002 108.61 L 213.04000000000002 103.89 L 214.53000000000003 103.89 L 214.53000000000003 108.64 L 215.53000000000003 108.64 L 215.53000000000003 109.71 L 214.53000000000003 109.71 L 214.53000000000003 111.22999999999999 L 213.31000000000003 111.22999999999999 Z M 213.31 105.35 L 213.31 105.35 L 211.22 108.64 L 213.33 108.64 Z" stroke-linecap="round" />
</g>
		<g transform="matrix(1 0 0 1 19.03 -42.33)"  >
<path style="stroke: none; stroke-width: 1; stroke-dasharray: none; stroke-linecap: butt; stroke-dashoffset: 0; stroke-linejoin: miter; stroke-miterlimit: 4; fill: rgb(209,211,212); fill-rule: nonzero; opacity: 1;" vector-effect="non-scaling-stroke"  transform=" translate(-219.03, -107.67)" d="M 221.26 105 L 218.26 105 L 218.19 106.59 C 218.32712899330886 106.55000279500365 218.4677694691561 106.52321413293751 218.60999999999999 106.51 L 219.04999999999998 106.51 C 219.38968611265003 106.5102531671713 219.7271927050887 106.56425422196149 220.04999999999998 106.67 C 220.34475472542198 106.76343588393408 220.6170872061666 106.91662290435292 220.85 107.12 C 221.08156489494863 107.32059506698413 221.26595810593184 107.56986737072073 221.39 107.85000000000001 C 221.5212405564876 108.16677648826288 221.58591420409084 108.50716410722723 221.57999999999998 108.85000000000001 C 221.58567150443136 109.22390595282668 221.51418304355911 109.59496510687794 221.36999999999998 109.94000000000001 C 221.23203122705385 110.24563931928483 221.03490688935932 110.52093365296169 220.78999999999996 110.75000000000001 C 220.54199503435922 110.97293774564112 220.25341799469072 111.14608396944223 219.93999999999997 111.26000000000002 C 219.61932599448366 111.37642254639076 219.28114324335357 111.43729544159417 218.93999999999997 111.44000000000003 C 218.3919491387779 111.45496685055434 217.85201081319354 111.30517750861804 217.38999999999996 111.01000000000002 C 216.9682507297866 110.72173314438763 216.64670622448145 110.30931736584405 216.46999999999997 109.83000000000001 L 217.59999999999997 109.42000000000002 C 217.6941409963734 109.70013925255688 217.87219649212187 109.94452914868226 218.10999999999996 110.12000000000002 C 218.36279991699527 110.29368637558697 218.66331752801864 110.38454053705915 218.96999999999997 110.38000000000002 C 219.15062778446142 110.38194290745369 219.33013873276815 110.35145991623179 219.49999999999997 110.29000000000002 C 219.66015589672807 110.22409752165845 219.80870827171088 110.13294038246445 219.93999999999997 110.02000000000002 C 220.0646317126521 109.89380743884321 220.16317548047599 109.74429275662766 220.22999999999996 109.58000000000003 C 220.30850453696863 109.38997626189756 220.34598923671555 109.18551426327794 220.33999999999997 108.98000000000003 C 220.34734604161315 108.73904177068069 220.29945720353496 108.49959758028976 220.2 108.28000000000003 C 220.11010205659673 108.09967364602453 219.98011503245263 107.94232093258692 219.82 107.82000000000004 C 219.663809845975 107.70929854983538 219.48698158175011 107.63108604835129 219.29999999999998 107.59000000000003 C 219.10702923844727 107.54211417972304 218.90881851025426 107.51859765264929 218.70999999999998 107.52000000000004 L 218.26 107.52000000000004 C 218.10822957447883 107.5403451592848 217.95792083866752 107.57040690644706 217.81 107.61000000000004 L 217.37 107.74000000000004 L 217 107.89000000000004 L 217.12 103.89000000000004 L 221.3 103.89000000000004 Z" stroke-linecap="round" />
</g>
		<g transform="matrix(1 0 0 1 27.16 -42.44)"  >
<path style="stroke: none; stroke-width: 1; stroke-dasharray: none; stroke-linecap: butt; stroke-dashoffset: 0; stroke-linejoin: miter; stroke-miterlimit: 4; fill: rgb(209,211,212); fill-rule: nonzero; opacity: 1;" vector-effect="non-scaling-stroke"  transform=" translate(-227.16, -107.56)" d="M 222.76 105.7 C 222.7583979308284 105.43915860935316 222.80941485474983 105.18067286148465 222.91 104.94 C 223.0099276455044 104.7142464193577 223.14869918297967 104.50778144896766 223.32 104.33 C 223.49923175645756 104.15579257556045 223.70952962261205 104.01672463181313 223.94 103.92 C 224.4210653218628 103.72539949569855 224.95893467813718 103.72539949569855 225.44 103.92 C 225.6657535806423 104.01992764550441 225.87221855103235 104.15869918297967 226.05 104.33 C 226.4132035511665 104.69284556039004 226.61504263121483 105.18663045265117 226.61 105.7 C 226.6124963269735 105.95769181564991 226.56141653861013 106.21309075746682 226.46 106.45 C 226.26689500245465 106.89900488665411 225.90900488665412 107.25689500245464 225.46 107.45 C 224.7339269816026 107.7393178416867 223.90584655517526 107.57917021204746 223.34 107.04 C 223.16869918297968 106.86221855103234 223.02992764550442 106.6557535806423 222.93 106.43 C 222.82438386434376 106.20072368298138 222.76654298596168 105.95234814639956 222.76 105.7 Z M 225.62 105.7 C 225.61577182315943 105.26202392130338 225.30335953783623 104.8877539487363 224.8731900176683 104.80532151028908 C 224.44302049750033 104.72288907184185 224.01437952471338 104.95515263944228 223.84853966826697 105.3605389552001 C 223.68269981182058 105.76592527095794 223.82564837688852 106.23202092222627 224.19025291184917 106.47472332451349 C 224.55485744680985 106.7174257268007 225.04001330543252 106.66943363130243 225.35 106.36 C 225.52703434771678 106.18655946497374 225.6247121951495 105.94779139347156 225.62 105.7 Z M 228.88 103.56 L 229.75 103.96000000000001 L 225.43 111.56 L 224.57 111.17 Z M 227.71 109.43 C 227.7075036730265 109.1723081843501 227.7585834613899 108.9169092425332 227.86 108.68 C 227.95724555512598 108.44738858383108 228.10004823453178 108.23658462851773 228.28 108.06 C 228.45625993939478 107.88682435001304 228.66308499118844 107.74781079061074 228.89000000000001 107.65 C 229.37106532186283 107.45539949569856 229.9089346781372 107.45539949569856 230.39000000000001 107.65 C 230.6169150088116 107.74781079061074 230.82374006060525 107.88682435001304 231.00000000000003 108.06 C 231.17995176546825 108.23658462851773 231.32275444487405 108.44738858383108 231.42000000000002 108.68 C 231.61460050430145 109.16106532186282 231.61460050430145 109.69893467813719 231.42000000000002 110.18 C 231.31919673072358 110.40770749752512 231.17675500808474 110.6145871423101 231.00000000000003 110.79 C 230.82666522662504 110.96672849246801 230.61910012162346 111.10623946468218 230.39000000000001 111.2 C 229.91000000000003 111.4 229.37 111.4 228.89000000000001 111.2 C 228.66089987837657 111.10623946468218 228.453334773375 110.96672849246801 228.28 110.79 C 228.1032449919153 110.6145871423101 227.96080326927645 110.40770749752512 227.86 110.18 C 227.7585834613899 109.94309075746682 227.7075036730265 109.68769181564991 227.71 109.43 Z M 230.57000000000002 109.43 C 230.57750647223438 109.17876244790384 230.47960939039578 108.9358326522303 230.3 108.76 C 230.1279543780149 108.58090220256707 229.888242678661 108.48283832555866 229.64000000000001 108.49000000000001 C 229.28286851670399 108.45301699766814 228.9358633476057 108.6227016203516 228.7457559583138 108.92728300415455 C 228.55564856902188 109.23186438795749 228.55564856902188 109.61813561204254 228.7457559583138 109.92271699584548 C 228.9358633476057 110.22729837964842 229.28286851670399 110.39698300233188 229.64000000000001 110.36000000000001 C 229.888242678661 110.36716167444136 230.1279543780149 110.26909779743295 230.3 110.09000000000002 C 230.4770343477168 109.91655946497376 230.57471219514952 109.67779139347157 230.57 109.43 Z" stroke-linecap="round" />
</g>
		<g transform="matrix(1 0 0 1 96.62 9.22)"  >
<path style="stroke: none; stroke-width: 1; stroke-dasharray: none; stroke-linecap: butt; stroke-dashoffset: 0; stroke-linejoin: miter; stroke-miterlimit: 4; fill: rgb(209,211,212); fill-rule: nonzero; opacity: 1;" vector-effect="non-scaling-stroke"  transform=" translate(-296.62, -159.22)" d="M 294.52 153.43 L 294.52 158.5 L 294.57 158.5 C 294.672015085923 158.36672586044142 294.7858065260088 158.24289399917163 294.90999999999997 158.13 C 295.0667706534673 157.9893907227466 295.237682403671 157.86539592357923 295.41999999999996 157.76 C 295.63407715785945 157.64105734552084 295.8626400229572 157.5503044432026 296.09999999999997 157.48999999999998 C 296.38896531558373 157.40557130177518 296.688992813552 157.3651181559817 296.98999999999995 157.36999999999998 C 297.94936327512363 157.37006027583396 298.8656366106332 157.76843998692507 299.5199999999999 158.46999999999997 C 299.83794649295584 158.82153651004063 300.0827060697571 159.23286857660938 300.23999999999995 159.67999999999998 C 300.4111029016133 160.1544307130637 300.4957752837124 160.65569121509066 300.48999999999995 161.15999999999997 C 300.494054979056 161.66987366354883 300.41293949290935 162.17684545196556 300.24999999999994 162.65999999999997 C 300.0899198618942 163.10665812127112 299.8492715931506 163.52016641404182 299.53999999999996 163.87999999999997 C 298.8875202341081 164.62870763490662 297.9325491006573 165.0437527813679 296.93999999999994 165.00999999999996 C 296.44404110511687 165.01374600178355 295.95416424180985 164.90069749486653 295.50999999999993 164.67999999999995 C 295.06675422096424 164.46076634904472 294.700581859385 164.11203076658833 294.4599999999999 163.67999999999995 L 294.4599999999999 163.67999999999995 L 294.4599999999999 164.75999999999996 L 292.74999999999994 164.75999999999996 L 292.74999999999994 153.43 Z M 298.65999999999997 161.16 C 298.66090648552716 160.87819376908757 298.61702598881436 160.59803367469024 298.53 160.32999999999998 C 298.4502792939105 160.058859329674 298.3214796362566 159.8046494790413 298.15 159.57999999999998 C 297.97322689961567 159.35937930937683 297.75168997278047 159.1787415074958 297.5 159.04999999999998 C 297.2136175897235 158.91107401071568 296.8982124771024 158.842507681885 296.58 158.85 C 296.27366684332304 158.84481501707094 295.9709819604528 158.91704663684678 295.7 159.06 C 295.44358428974505 159.19457829520533 295.21597575372544 159.37802398095246 295.03 159.6 C 294.8404850269386 159.81885898548705 294.69757535493005 160.0740548283594 294.60999999999996 160.35 C 294.5118442778517 160.61923077602015 294.461093231366 160.90343663634016 294.46 161.19 C 294.4602726849157 161.47663703729575 294.51104894611643 161.76098410001993 294.60999999999996 162.03 C 294.69777611710145 162.30285698259692 294.8407383898975 162.554742891809 295.03 162.77 C 295.21597575372544 162.99197601904754 295.44358428974505 163.17542170479467 295.7 163.31 C 296.2689331007094 163.58305779296228 296.9310668992906 163.58305779296228 297.5 163.31 C 297.7526546747286 163.17835020745747 297.9742673977218 162.9942411760477 298.15 162.77 C 298.3234928401527 162.5466199036597 298.45249356564415 162.29201320861077 298.53 162.02 C 298.6188460679784 161.74208341524556 298.66273219428535 161.45175981044548 298.66 161.16 Z" stroke-linecap="round" />
</g>
		<g transform="matrix(1 0 0 1 96.62 9.22)"  >
<path style="stroke: none; stroke-width: 1; stroke-dasharray: none; stroke-linecap: butt; stroke-dashoffset: 0; stroke-linejoin: miter; stroke-miterlimit: 4; fill: rgb(209,211,212); fill-rule: nonzero; opacity: 1;" vector-effect="non-scaling-stroke"  transform=" translate(-296.62, -159.22)" d="M 294.52 153.43 L 294.52 158.5 L 294.57 158.5 C 294.672015085923 158.36672586044142 294.7858065260088 158.24289399917163 294.90999999999997 158.13 C 295.0667706534673 157.9893907227466 295.237682403671 157.86539592357923 295.41999999999996 157.76 C 295.63407715785945 157.64105734552084 295.8626400229572 157.5503044432026 296.09999999999997 157.48999999999998 C 296.38896531558373 157.40557130177518 296.688992813552 157.3651181559817 296.98999999999995 157.36999999999998 C 297.94936327512363 157.37006027583396 298.8656366106332 157.76843998692507 299.5199999999999 158.46999999999997 C 299.83794649295584 158.82153651004063 300.0827060697571 159.23286857660938 300.23999999999995 159.67999999999998 C 300.4111029016133 160.1544307130637 300.4957752837124 160.65569121509066 300.48999999999995 161.15999999999997 C 300.494054979056 161.66987366354883 300.41293949290935 162.17684545196556 300.24999999999994 162.65999999999997 C 300.0899198618942 163.10665812127112 299.8492715931506 163.52016641404182 299.53999999999996 163.87999999999997 C 298.8875202341081 164.62870763490662 297.9325491006573 165.0437527813679 296.93999999999994 165.00999999999996 C 296.44404110511687 165.01374600178355 295.95416424180985 164.90069749486653 295.50999999999993 164.67999999999995 C 295.06675422096424 164.46076634904472 294.700581859385 164.11203076658833 294.4599999999999 163.67999999999995 L 294.4599999999999 163.67999999999995 L 294.4599999999999 164.75999999999996 L 292.74999999999994 164.75999999999996 L 292.74999999999994 153.43 Z M 298.65999999999997 161.16 C 298.66090648552716 160.87819376908757 298.61702598881436 160.59803367469024 298.53 160.32999999999998 C 298.4502792939105 160.058859329674 298.3214796362566 159.8046494790413 298.15 159.57999999999998 C 297.97322689961567 159.35937930937683 297.75168997278047 159.1787415074958 297.5 159.04999999999998 C 297.2136175897235 158.91107401071568 296.8982124771024 158.842507681885 296.58 158.85 C 296.27366684332304 158.84481501707094 295.9709819604528 158.91704663684678 295.7 159.06 C 295.44358428974505 159.19457829520533 295.21597575372544 159.37802398095246 295.03 159.6 C 294.8404850269386 159.81885898548705 294.69757535493005 160.0740548283594 294.60999999999996 160.35 C 294.5118442778517 160.61923077602015 294.461093231366 160.90343663634016 294.46 161.19 C 294.4602726849157 161.47663703729575 294.51104894611643 161.76098410001993 294.60999999999996 162.03 C 294.69777611710145 162.30285698259692 294.8407383898975 162.554742891809 295.03 162.77 C 295.21597575372544 162.99197601904754 295.44358428974505 163.17542170479467 295.7 163.31 C 296.2689331007094 163.58305779296228 296.9310668992906 163.58305779296228 297.5 163.31 C 297.7526546747286 163.17835020745747 297.9742673977218 162.9942411760477 298.15 162.77 C 298.3234928401527 162.5466199036597 298.45249356564415 162.29201320861077 298.53 162.02 C 298.6188460679784 161.74208341524556 298.66273219428535 161.45175981044548 298.66 161.16 Z" stroke-linecap="round" />
</g>
		<g transform="matrix(1 0 0 1 9.72 -50.43)"  >
<path style="stroke: none; stroke-width: 1; stroke-dasharray: none; stroke-linecap: butt; stroke-dashoffset: 0; stroke-linejoin: miter; stroke-miterlimit: 4; fill: rgb(209,211,212); fill-rule: nonzero; opacity: 1;" vector-effect="non-scaling-stroke"  transform=" translate(-209.72, -99.57)" d="M 235.78 120.51 L 183.62 120.51 C 183.40948496226255 120.50991043250316 183.22157510025505 120.37797372088087 183.15 120.18 C 183.08399029131675 119.97817410239148 183.14732901841916 119.75648855753307 183.31 119.62 L 235.47 78.77000000000001 C 235.60728764108194 78.64041044102527 235.80586058231785 78.59919672998309 235.98337984495447 78.66344827924118 C 236.16089910759106 78.72769982849927 236.28709319699428 78.88646013452265 236.3096352836299 79.07389866983283 C 236.33217737026547 79.26133720514301 236.2472234619689 79.44549098988306 236.09 79.55000000000001 L 185.09 119.55000000000001 L 235.8 119.55000000000001 C 236.07390845254318 119.55532010577572 236.29467989422432 119.77609154745684 236.3 120.05000000000001 C 236.27871946315472 120.3182947099689 236.04888689795771 120.52160813302777 235.78 120.51 Z" stroke-linecap="round" />
</g>
		<g transform="matrix(1 0 0 1 0.29 -38.79)"  >
<path style="stroke: none; stroke-width: 1; stroke-dasharray: none; stroke-linecap: butt; stroke-dashoffset: 0; stroke-linejoin: miter; stroke-miterlimit: 4; fill: rgb(209,211,212); fill-rule: nonzero; opacity: 1;" vector-effect="non-scaling-stroke"  transform=" translate(-200.29, -111.21)" d="M 202.9 124.52 C 202.8044326598928 124.51816831408206 202.71113943188885 124.49052587615496 202.63 124.44 C 202.39960110540557 124.2905841988363 202.328872447443 123.98556686137273 202.47 123.75 C 202.54 123.65 208.91 113.03999999999999 195.64 98.75 C 195.44821670962344 98.55218632326395 195.44821670962344 98.23781367673605 195.64 98.04 C 195.73388329995277 97.94534367458846 195.8616812318147 97.89210083782916 195.995 97.89210083782916 C 196.12831876818527 97.89210083782916 196.25611670004722 97.94534367458846 196.35 98.04 C 203.54 105.77000000000001 205.06 112.45 205.07 116.69 C 205.14538923549236 119.31247322492533 204.5316361890806 121.90885549429642 203.29 124.21999999999998 C 203.22160280031878 124.38147146917991 203.073613341133 124.49530951470743 202.9 124.52 Z" stroke-linecap="round" />
</g>
		<g transform="matrix(1 0 0 1 119.44 37.3)"  >
<path style="stroke: none; stroke-width: 1; stroke-dasharray: none; stroke-linecap: butt; stroke-dashoffset: 0; stroke-linejoin: miter; stroke-miterlimit: 4; fill: rgb(209,211,212); fill-rule: nonzero; opacity: 1;" vector-effect="non-scaling-stroke"  transform=" translate(-319.44, -187.31)" d="M 333.7 193.72 L 305.17 193.72 C 304.8938576250846 193.72 304.67 193.4961423749154 304.67 193.22 L 304.67 181.39 C 304.67 181.1138576250846 304.8938576250846 180.89 305.17 180.89 L 333.7 180.89 C 333.9761423749154 180.89 334.2 181.1138576250846 334.2 181.39 L 334.2 193.22 C 334.2 193.4961423749154 333.9761423749154 193.72 333.7 193.72 Z M 305.7 192.72 L 333.2 192.72 L 333.2 181.89 L 305.67 181.89 Z" stroke-linecap="round" />
</g>
		<g transform="matrix(1 0 0 1 119.43 40.27)"  >
<rect style="stroke: none; stroke-width: 1; stroke-dasharray: none; stroke-linecap: butt; stroke-dashoffset: 0; stroke-linejoin: miter; stroke-miterlimit: 4; fill: rgb(209,211,212); fill-rule: nonzero; opacity: 1;" vector-effect="non-scaling-stroke"  x="-14.26" y="-2.96" rx="0" ry="0" width="28.52" height="5.92" />
</g>
		<g transform="matrix(1 0 0 1 119.44 40.26)"  >
<path style="stroke: none; stroke-width: 1; stroke-dasharray: none; stroke-linecap: butt; stroke-dashoffset: 0; stroke-linejoin: miter; stroke-miterlimit: 4; fill: rgb(209,211,212); fill-rule: nonzero; opacity: 1;" vector-effect="non-scaling-stroke"  transform=" translate(-319.44, -190.26)" d="M 333.7 193.72 L 305.17 193.72 C 304.8938576250846 193.72 304.67 193.4961423749154 304.67 193.22 L 304.67 187.31 C 304.67 187.0338576250846 304.8938576250846 186.81 305.17 186.81 L 333.7 186.81 C 333.9761423749154 186.81 334.2 187.0338576250846 334.2 187.31 L 334.2 193.22 C 334.2 193.4961423749154 333.9761423749154 193.72 333.7 193.72 Z M 305.7 192.72 L 333.2 192.72 L 333.2 187.81 L 305.67 187.81 Z" stroke-linecap="round" />
</g>
</g>
</g>
</svg>